%
M48
M72
T01C0.01969
T02C0.03150
T03C0.03200
T04C0.03937
T05C0.04000
T06C0.07480
%
T01
X41800Y86800
X56800Y141800
X41800Y156800
X116800Y161800
X151800Y131800
X151800Y121800
X166800Y56800
T02
X37145Y170235
X32420Y173384
X37145Y176534
X32420Y179683
X37145Y182833
X56268Y189937
X64142Y189937
X72016Y189937
T03
X71800Y176800
X71800Y166800
X86800Y151800
X86800Y141800
X86800Y131800
X86800Y121800
X86800Y111800
X86800Y101800
X86800Y91800
X86800Y81800
X86800Y71800
X86800Y61800
X86800Y51800
X86800Y41800
X86800Y31800
X86800Y21800
X66800Y21800
X66800Y31800
X46800Y49435
X32063Y48512
X18610Y46800
X8610Y46800
X32063Y8512
X46800Y9435
X66537Y9435
X106537Y9435
X116800Y21800
X116800Y31800
X116800Y41800
X116800Y51800
X116800Y61800
X116800Y71800
X116800Y81800
X116800Y91800
X116800Y101800
X116800Y111800
X116800Y121800
X116800Y131800
X116800Y141800
X116800Y151800
X126800Y151800
X126800Y141800
X136800Y166800
X141800Y176800
X141800Y186800
X126800Y186800
X126800Y176800
X106800Y181800
X101800Y189300
X96800Y181800
X176800Y166800
X141800Y71800
X131800Y71800
X131800Y11800
X141800Y11800
T04
X48394Y189937
X79890Y189937
T05
X6800Y136800
X6800Y126800
X6800Y116800
X6800Y106800
X6800Y96800
X6800Y86800
X6800Y76800
X6800Y66800
X11300Y31800
X12300Y21800
X11300Y11800
X66800Y56800
X66800Y66800
X66800Y76800
X165302Y186000
X155302Y187000
X175302Y187000
X194320Y186839
X194320Y176839
X194320Y166839
X194320Y156839
X194320Y146839
X194300Y136800
X194300Y126800
X194300Y116800
X194300Y106800
X194300Y96800
X194300Y86800
X194300Y76800
X194300Y66800
T06
X17066Y162164
X17066Y190904
M30
