G75*
%MOIN*%
%OFA0B0*%
%FSLAX25Y25*%
%IPPOS*%
%LPD*%
%AMOC8*
5,1,8,0,0,1.08239X$1,22.5*
%
%ADD10C,0.00000*%
%ADD11OC8,0.06000*%
%ADD12C,0.08200*%
%ADD13C,0.05950*%
%ADD14C,0.12020*%
%ADD15C,0.06000*%
%ADD16C,0.06737*%
%ADD17R,0.06737X0.06737*%
%ADD18C,0.04369*%
D10*
X0001800Y0001800D02*
X0001800Y0198650D01*
X0001800Y0001800D02*
X0198650Y0001800D01*
X0198650Y0198650D01*
D11*
X0176800Y0166800D03*
X0141800Y0176800D03*
X0141800Y0186800D03*
X0126800Y0186800D03*
X0126800Y0176800D03*
X0136800Y0166800D03*
X0126800Y0151800D03*
X0126800Y0141800D03*
X0106800Y0181800D03*
X0101800Y0189300D03*
X0096800Y0181800D03*
X0071800Y0176800D03*
X0071800Y0166800D03*
X0131800Y0071800D03*
X0141800Y0071800D03*
X0141800Y0011800D03*
X0131800Y0011800D03*
X0106537Y0009435D03*
X0066537Y0009435D03*
X0066800Y0021800D03*
X0066800Y0031800D03*
X0046800Y0049435D03*
X0032063Y0048512D03*
X0018610Y0046800D03*
X0008610Y0046800D03*
X0032063Y0008512D03*
X0046800Y0009435D03*
D12*
X0012300Y0021800D03*
X0011300Y0011800D03*
X0011300Y0031800D03*
X0006800Y0066800D03*
X0006800Y0076800D03*
X0006800Y0086800D03*
X0006800Y0096800D03*
X0006800Y0106800D03*
X0006800Y0116800D03*
X0006800Y0126800D03*
X0006800Y0136800D03*
X0066800Y0076800D03*
X0066800Y0066800D03*
X0066800Y0056800D03*
X0165302Y0186000D03*
X0155302Y0187000D03*
X0175302Y0187000D03*
X0194320Y0186839D03*
X0194320Y0176839D03*
X0194320Y0166839D03*
X0194320Y0156839D03*
X0194320Y0146839D03*
X0194300Y0136800D03*
X0194300Y0126800D03*
X0194300Y0116800D03*
X0194300Y0106800D03*
X0194300Y0096800D03*
X0194300Y0086800D03*
X0194300Y0076800D03*
X0194300Y0066800D03*
D13*
X0072016Y0189937D03*
X0064142Y0189937D03*
X0056268Y0189937D03*
X0037145Y0182833D03*
X0032420Y0179683D03*
X0037145Y0176534D03*
X0032420Y0173384D03*
X0037145Y0170235D03*
D14*
X0017066Y0162164D03*
X0017066Y0190904D03*
D15*
X0084200Y0151800D02*
X0089400Y0151800D01*
X0089400Y0141800D02*
X0084200Y0141800D01*
X0084200Y0131800D02*
X0089400Y0131800D01*
X0089400Y0121800D02*
X0084200Y0121800D01*
X0084200Y0111800D02*
X0089400Y0111800D01*
X0089400Y0101800D02*
X0084200Y0101800D01*
X0084200Y0091800D02*
X0089400Y0091800D01*
X0089400Y0081800D02*
X0084200Y0081800D01*
X0084200Y0071800D02*
X0089400Y0071800D01*
X0089400Y0061800D02*
X0084200Y0061800D01*
X0084200Y0051800D02*
X0089400Y0051800D01*
X0089400Y0041800D02*
X0084200Y0041800D01*
X0084200Y0031800D02*
X0089400Y0031800D01*
X0089400Y0021800D02*
X0084200Y0021800D01*
X0114200Y0021800D02*
X0119400Y0021800D01*
X0119400Y0031800D02*
X0114200Y0031800D01*
X0114200Y0041800D02*
X0119400Y0041800D01*
X0119400Y0051800D02*
X0114200Y0051800D01*
X0114200Y0061800D02*
X0119400Y0061800D01*
X0119400Y0071800D02*
X0114200Y0071800D01*
X0114200Y0081800D02*
X0119400Y0081800D01*
X0119400Y0091800D02*
X0114200Y0091800D01*
X0114200Y0101800D02*
X0119400Y0101800D01*
X0119400Y0111800D02*
X0114200Y0111800D01*
X0114200Y0121800D02*
X0119400Y0121800D01*
X0119400Y0131800D02*
X0114200Y0131800D01*
X0114200Y0141800D02*
X0119400Y0141800D01*
X0119400Y0151800D02*
X0114200Y0151800D01*
D16*
X0048394Y0189937D03*
D17*
X0079890Y0189937D03*
D18*
X0116800Y0161800D03*
X0151800Y0131800D03*
X0151800Y0121800D03*
X0166800Y0056800D03*
X0056800Y0141800D03*
X0041800Y0156800D03*
X0041800Y0086800D03*
M02*
