G75*
%MOIN*%
%OFA0B0*%
%FSLAX25Y25*%
%IPPOS*%
%LPD*%
%AMOC8*
5,1,8,0,0,1.08239X$1,22.5*
%
%ADD10C,0.00000*%
%ADD11OC8,0.05200*%
%ADD12C,0.07400*%
%ADD13C,0.05150*%
%ADD14C,0.11220*%
%ADD15C,0.05200*%
%ADD16C,0.05937*%
%ADD17R,0.05937X0.05937*%
%ADD18C,0.01600*%
%ADD19C,0.03569*%
D10*
X0001800Y0001800D02*
X0001800Y0198650D01*
X0198650Y0198650D01*
X0198650Y0001800D01*
X0001800Y0001800D01*
D11*
X0032063Y0008512D03*
X0046800Y0009435D03*
X0066537Y0009435D03*
X0066800Y0021800D03*
X0066800Y0031800D03*
X0046800Y0049435D03*
X0032063Y0048512D03*
X0018610Y0046800D03*
X0008610Y0046800D03*
X0106537Y0009435D03*
X0131800Y0011800D03*
X0141800Y0011800D03*
X0141800Y0071800D03*
X0131800Y0071800D03*
X0126800Y0141800D03*
X0126800Y0151800D03*
X0136800Y0166800D03*
X0141800Y0176800D03*
X0141800Y0186800D03*
X0126800Y0186800D03*
X0126800Y0176800D03*
X0106800Y0181800D03*
X0101800Y0189300D03*
X0096800Y0181800D03*
X0071800Y0176800D03*
X0071800Y0166800D03*
X0176800Y0166800D03*
D12*
X0194320Y0166839D03*
X0194320Y0156839D03*
X0194320Y0146839D03*
X0194300Y0136800D03*
X0194300Y0126800D03*
X0194300Y0116800D03*
X0194300Y0106800D03*
X0194300Y0096800D03*
X0194300Y0086800D03*
X0194300Y0076800D03*
X0194300Y0066800D03*
X0194320Y0176839D03*
X0194320Y0186839D03*
X0175302Y0187000D03*
X0165302Y0186000D03*
X0155302Y0187000D03*
X0066800Y0076800D03*
X0066800Y0066800D03*
X0066800Y0056800D03*
X0012300Y0021800D03*
X0011300Y0011800D03*
X0011300Y0031800D03*
X0006800Y0066800D03*
X0006800Y0076800D03*
X0006800Y0086800D03*
X0006800Y0096800D03*
X0006800Y0106800D03*
X0006800Y0116800D03*
X0006800Y0126800D03*
X0006800Y0136800D03*
D13*
X0037145Y0170235D03*
X0032420Y0173384D03*
X0037145Y0176534D03*
X0032420Y0179683D03*
X0037145Y0182833D03*
X0056268Y0189937D03*
X0064142Y0189937D03*
X0072016Y0189937D03*
D14*
X0017066Y0190904D03*
X0017066Y0162164D03*
D15*
X0084200Y0151800D02*
X0089400Y0151800D01*
X0089400Y0141800D02*
X0084200Y0141800D01*
X0084200Y0131800D02*
X0089400Y0131800D01*
X0089400Y0121800D02*
X0084200Y0121800D01*
X0084200Y0111800D02*
X0089400Y0111800D01*
X0089400Y0101800D02*
X0084200Y0101800D01*
X0084200Y0091800D02*
X0089400Y0091800D01*
X0089400Y0081800D02*
X0084200Y0081800D01*
X0084200Y0071800D02*
X0089400Y0071800D01*
X0089400Y0061800D02*
X0084200Y0061800D01*
X0084200Y0051800D02*
X0089400Y0051800D01*
X0089400Y0041800D02*
X0084200Y0041800D01*
X0084200Y0031800D02*
X0089400Y0031800D01*
X0089400Y0021800D02*
X0084200Y0021800D01*
X0114200Y0021800D02*
X0119400Y0021800D01*
X0119400Y0031800D02*
X0114200Y0031800D01*
X0114200Y0041800D02*
X0119400Y0041800D01*
X0119400Y0051800D02*
X0114200Y0051800D01*
X0114200Y0061800D02*
X0119400Y0061800D01*
X0119400Y0071800D02*
X0114200Y0071800D01*
X0114200Y0081800D02*
X0119400Y0081800D01*
X0119400Y0091800D02*
X0114200Y0091800D01*
X0114200Y0101800D02*
X0119400Y0101800D01*
X0119400Y0111800D02*
X0114200Y0111800D01*
X0114200Y0121800D02*
X0119400Y0121800D01*
X0119400Y0131800D02*
X0114200Y0131800D01*
X0114200Y0141800D02*
X0119400Y0141800D01*
X0119400Y0151800D02*
X0114200Y0151800D01*
D16*
X0048394Y0189937D03*
D17*
X0079890Y0189937D03*
D18*
X0084858Y0190424D02*
X0097200Y0190424D01*
X0097200Y0191205D02*
X0097200Y0187395D01*
X0098195Y0186400D01*
X0094895Y0186400D01*
X0092200Y0183705D01*
X0092200Y0179895D01*
X0094000Y0178095D01*
X0094000Y0176243D01*
X0094426Y0175214D01*
X0099426Y0170214D01*
X0100214Y0169426D01*
X0101243Y0169000D01*
X0107357Y0169000D01*
X0108386Y0169426D01*
X0109174Y0170214D01*
X0122960Y0184000D01*
X0123095Y0184000D01*
X0124895Y0182200D01*
X0128705Y0182200D01*
X0130505Y0184000D01*
X0138095Y0184000D01*
X0139895Y0182200D01*
X0143705Y0182200D01*
X0146400Y0184895D01*
X0146400Y0188705D01*
X0143705Y0191400D01*
X0139895Y0191400D01*
X0138095Y0189600D01*
X0130505Y0189600D01*
X0128705Y0191400D01*
X0124895Y0191400D01*
X0123095Y0189600D01*
X0121243Y0189600D01*
X0120214Y0189174D01*
X0119426Y0188386D01*
X0111200Y0180160D01*
X0111200Y0181800D01*
X0111200Y0183623D01*
X0108623Y0186200D01*
X0106800Y0186200D01*
X0106800Y0181800D01*
X0106800Y0181800D01*
X0111200Y0181800D01*
X0106800Y0181800D01*
X0106800Y0181800D01*
X0106800Y0177400D01*
X0108440Y0177400D01*
X0105640Y0174600D01*
X0102960Y0174600D01*
X0099600Y0177960D01*
X0099600Y0178095D01*
X0101400Y0179895D01*
X0101400Y0183705D01*
X0100405Y0184700D01*
X0103477Y0184700D01*
X0102400Y0183623D01*
X0102400Y0181800D01*
X0106800Y0181800D01*
X0106800Y0181800D01*
X0106800Y0181800D01*
X0106800Y0186200D01*
X0105205Y0186200D01*
X0106400Y0187395D01*
X0106400Y0191205D01*
X0103755Y0193850D01*
X0193850Y0193850D01*
X0193850Y0192539D01*
X0193186Y0192539D01*
X0191091Y0191672D01*
X0189487Y0190068D01*
X0189377Y0189800D01*
X0180312Y0189800D01*
X0180135Y0190229D01*
X0178531Y0191833D01*
X0176436Y0192700D01*
X0174169Y0192700D01*
X0172074Y0191833D01*
X0170470Y0190229D01*
X0170079Y0189285D01*
X0168531Y0190833D01*
X0166436Y0191700D01*
X0164169Y0191700D01*
X0162074Y0190833D01*
X0160470Y0189229D01*
X0160409Y0189082D01*
X0160400Y0189112D01*
X0160007Y0189883D01*
X0159498Y0190583D01*
X0158885Y0191196D01*
X0158185Y0191704D01*
X0157414Y0192097D01*
X0156590Y0192365D01*
X0155735Y0192500D01*
X0155502Y0192500D01*
X0155502Y0187201D01*
X0155102Y0187201D01*
X0155102Y0192500D01*
X0154870Y0192500D01*
X0154015Y0192365D01*
X0153191Y0192097D01*
X0152420Y0191704D01*
X0151719Y0191196D01*
X0151107Y0190583D01*
X0150598Y0189883D01*
X0150205Y0189112D01*
X0149938Y0188288D01*
X0149802Y0187433D01*
X0149802Y0187200D01*
X0155102Y0187200D01*
X0155102Y0186800D01*
X0155502Y0186800D01*
X0155502Y0181500D01*
X0155735Y0181500D01*
X0156590Y0181636D01*
X0157414Y0181903D01*
X0158185Y0182296D01*
X0158885Y0182805D01*
X0159498Y0183417D01*
X0159947Y0184036D01*
X0160470Y0182772D01*
X0162074Y0181168D01*
X0164169Y0180300D01*
X0166436Y0180300D01*
X0168531Y0181168D01*
X0170135Y0182772D01*
X0170526Y0183716D01*
X0172074Y0182168D01*
X0172502Y0181991D01*
X0172502Y0169008D01*
X0172200Y0168705D01*
X0172200Y0164895D01*
X0174895Y0162200D01*
X0178705Y0162200D01*
X0181400Y0164895D01*
X0181400Y0168705D01*
X0178705Y0171400D01*
X0178102Y0171400D01*
X0178102Y0181991D01*
X0178531Y0182168D01*
X0180135Y0183772D01*
X0180312Y0184200D01*
X0189243Y0184200D01*
X0189487Y0183611D01*
X0191091Y0182007D01*
X0191496Y0181839D01*
X0191091Y0181672D01*
X0189487Y0180068D01*
X0188620Y0177973D01*
X0188620Y0175706D01*
X0189487Y0173611D01*
X0191091Y0172007D01*
X0191784Y0171720D01*
X0191437Y0171543D01*
X0190737Y0171035D01*
X0190125Y0170422D01*
X0189616Y0169722D01*
X0189223Y0168951D01*
X0188955Y0168127D01*
X0188820Y0167272D01*
X0188820Y0167039D01*
X0193850Y0167039D01*
X0193850Y0166639D01*
X0188820Y0166639D01*
X0188820Y0166406D01*
X0188955Y0165551D01*
X0189223Y0164728D01*
X0189616Y0163957D01*
X0190125Y0163256D01*
X0190737Y0162644D01*
X0191437Y0162135D01*
X0191784Y0161959D01*
X0191091Y0161672D01*
X0189487Y0160068D01*
X0189310Y0159639D01*
X0176282Y0159639D01*
X0175253Y0159213D01*
X0151624Y0135584D01*
X0151047Y0135584D01*
X0149656Y0135008D01*
X0148592Y0133944D01*
X0148016Y0132553D01*
X0148016Y0131047D01*
X0148592Y0129656D01*
X0149656Y0128592D01*
X0151047Y0128016D01*
X0152553Y0128016D01*
X0153944Y0128592D01*
X0155008Y0129656D01*
X0155584Y0131047D01*
X0155584Y0131624D01*
X0177999Y0154039D01*
X0189310Y0154039D01*
X0189487Y0153611D01*
X0191091Y0152007D01*
X0191496Y0151839D01*
X0191091Y0151672D01*
X0189487Y0150068D01*
X0189310Y0149639D01*
X0176282Y0149639D01*
X0175253Y0149213D01*
X0151624Y0125584D01*
X0151047Y0125584D01*
X0149656Y0125008D01*
X0148592Y0123944D01*
X0148016Y0122553D01*
X0148016Y0121047D01*
X0148592Y0119656D01*
X0149656Y0118592D01*
X0151047Y0118016D01*
X0152553Y0118016D01*
X0153944Y0118592D01*
X0155008Y0119656D01*
X0155584Y0121047D01*
X0155584Y0121624D01*
X0177999Y0144039D01*
X0189310Y0144039D01*
X0189487Y0143611D01*
X0191091Y0142007D01*
X0191534Y0141824D01*
X0191071Y0141632D01*
X0189468Y0140029D01*
X0188600Y0137934D01*
X0188600Y0135666D01*
X0189468Y0133571D01*
X0191071Y0131968D01*
X0191476Y0131800D01*
X0191071Y0131632D01*
X0189468Y0130029D01*
X0188600Y0127934D01*
X0188600Y0125666D01*
X0189468Y0123571D01*
X0191071Y0121968D01*
X0191476Y0121800D01*
X0191071Y0121632D01*
X0189468Y0120029D01*
X0188600Y0117934D01*
X0188600Y0115666D01*
X0189468Y0113571D01*
X0191071Y0111968D01*
X0191476Y0111800D01*
X0191071Y0111632D01*
X0189468Y0110029D01*
X0188600Y0107934D01*
X0188600Y0105666D01*
X0189468Y0103571D01*
X0191071Y0101968D01*
X0191476Y0101800D01*
X0191071Y0101632D01*
X0189468Y0100029D01*
X0188600Y0097934D01*
X0188600Y0095666D01*
X0189468Y0093571D01*
X0191071Y0091968D01*
X0191476Y0091800D01*
X0191071Y0091632D01*
X0189468Y0090029D01*
X0188600Y0087934D01*
X0188600Y0085666D01*
X0189468Y0083571D01*
X0191071Y0081968D01*
X0191476Y0081800D01*
X0191071Y0081632D01*
X0189468Y0080029D01*
X0188600Y0077934D01*
X0188600Y0075666D01*
X0189468Y0073571D01*
X0191071Y0071968D01*
X0191764Y0071681D01*
X0191417Y0071504D01*
X0190717Y0070995D01*
X0190105Y0070383D01*
X0189596Y0069683D01*
X0189203Y0068911D01*
X0188935Y0068088D01*
X0188800Y0067233D01*
X0188800Y0067000D01*
X0193850Y0067000D01*
X0193850Y0066600D01*
X0188800Y0066600D01*
X0188800Y0066367D01*
X0188935Y0065512D01*
X0189203Y0064689D01*
X0189596Y0063917D01*
X0190105Y0063217D01*
X0190717Y0062605D01*
X0191417Y0062096D01*
X0192189Y0061703D01*
X0193012Y0061435D01*
X0193850Y0061303D01*
X0193850Y0006600D01*
X0120560Y0006600D01*
X0122960Y0009000D01*
X0128095Y0009000D01*
X0129895Y0007200D01*
X0133705Y0007200D01*
X0136400Y0009895D01*
X0136400Y0013705D01*
X0133705Y0016400D01*
X0129895Y0016400D01*
X0128095Y0014600D01*
X0121243Y0014600D01*
X0120214Y0014174D01*
X0119426Y0013386D01*
X0115949Y0009909D01*
X0111137Y0011145D01*
X0111137Y0011340D01*
X0108442Y0014034D01*
X0104631Y0014034D01*
X0101937Y0011340D01*
X0101937Y0007529D01*
X0102866Y0006600D01*
X0069925Y0006600D01*
X0070937Y0007612D01*
X0070937Y0009434D01*
X0066537Y0009434D01*
X0066537Y0009435D01*
X0066536Y0009435D01*
X0066536Y0009434D01*
X0062137Y0009434D01*
X0062137Y0007612D01*
X0063149Y0006600D01*
X0050471Y0006600D01*
X0051400Y0007529D01*
X0051400Y0011340D01*
X0048705Y0014034D01*
X0044895Y0014034D01*
X0042200Y0011340D01*
X0042200Y0007529D01*
X0043129Y0006600D01*
X0036374Y0006600D01*
X0036463Y0006690D01*
X0036463Y0008512D01*
X0032064Y0008512D01*
X0032064Y0008512D01*
X0036463Y0008512D01*
X0036463Y0010335D01*
X0033886Y0012912D01*
X0032063Y0012912D01*
X0030241Y0012912D01*
X0027663Y0010335D01*
X0027663Y0008512D01*
X0027663Y0006690D01*
X0027753Y0006600D01*
X0013094Y0006600D01*
X0013411Y0006703D01*
X0014183Y0007096D01*
X0014883Y0007605D01*
X0015495Y0008217D01*
X0016004Y0008917D01*
X0016397Y0009689D01*
X0016665Y0010512D01*
X0016800Y0011367D01*
X0016800Y0011600D01*
X0011500Y0011600D01*
X0011500Y0012000D01*
X0016800Y0012000D01*
X0016800Y0012233D01*
X0016665Y0013088D01*
X0016397Y0013911D01*
X0016004Y0014683D01*
X0015495Y0015383D01*
X0014883Y0015995D01*
X0014265Y0016444D01*
X0015529Y0016968D01*
X0017132Y0018571D01*
X0018000Y0020666D01*
X0018000Y0022934D01*
X0017132Y0025029D01*
X0015529Y0026632D01*
X0014584Y0027023D01*
X0016132Y0028571D01*
X0016310Y0029000D01*
X0031359Y0029000D01*
X0031470Y0028964D01*
X0031913Y0029000D01*
X0032357Y0029000D01*
X0032464Y0029045D01*
X0032580Y0029054D01*
X0032976Y0029256D01*
X0033386Y0029426D01*
X0033468Y0029509D01*
X0033572Y0029562D01*
X0033860Y0029900D01*
X0034174Y0030214D01*
X0034218Y0030321D01*
X0046563Y0044835D01*
X0048705Y0044835D01*
X0051400Y0047529D01*
X0051400Y0051340D01*
X0048705Y0054034D01*
X0044895Y0054034D01*
X0042200Y0051340D01*
X0042200Y0048348D01*
X0030506Y0034600D01*
X0016310Y0034600D01*
X0016132Y0035029D01*
X0014529Y0036632D01*
X0012434Y0037500D01*
X0010166Y0037500D01*
X0008071Y0036632D01*
X0006600Y0035161D01*
X0006600Y0042305D01*
X0006705Y0042200D01*
X0010516Y0042200D01*
X0013210Y0044895D01*
X0013210Y0048705D01*
X0010516Y0051400D01*
X0006705Y0051400D01*
X0006600Y0051295D01*
X0006600Y0066600D01*
X0007000Y0066600D01*
X0007000Y0067000D01*
X0012300Y0067000D01*
X0012300Y0067233D01*
X0012165Y0068088D01*
X0011897Y0068911D01*
X0011504Y0069683D01*
X0010995Y0070383D01*
X0010383Y0070995D01*
X0009683Y0071504D01*
X0009336Y0071681D01*
X0010029Y0071968D01*
X0011632Y0073571D01*
X0011810Y0074000D01*
X0032357Y0074000D01*
X0033386Y0074426D01*
X0041976Y0083016D01*
X0042553Y0083016D01*
X0043944Y0083592D01*
X0045008Y0084656D01*
X0045584Y0086047D01*
X0045584Y0087553D01*
X0045008Y0088944D01*
X0043944Y0090008D01*
X0042553Y0090584D01*
X0041047Y0090584D01*
X0039656Y0090008D01*
X0038592Y0088944D01*
X0038016Y0087553D01*
X0038016Y0086976D01*
X0030640Y0079600D01*
X0011810Y0079600D01*
X0011632Y0080029D01*
X0010029Y0081632D01*
X0009624Y0081800D01*
X0010029Y0081968D01*
X0011632Y0083571D01*
X0012500Y0085666D01*
X0012500Y0087934D01*
X0011632Y0090029D01*
X0010029Y0091632D01*
X0009624Y0091800D01*
X0010029Y0091968D01*
X0011632Y0093571D01*
X0012500Y0095666D01*
X0012500Y0097934D01*
X0011632Y0100029D01*
X0010029Y0101632D01*
X0009624Y0101800D01*
X0010029Y0101968D01*
X0011632Y0103571D01*
X0012500Y0105666D01*
X0012500Y0107934D01*
X0011632Y0110029D01*
X0010029Y0111632D01*
X0009624Y0111800D01*
X0010029Y0111968D01*
X0011632Y0113571D01*
X0012500Y0115666D01*
X0012500Y0117934D01*
X0011632Y0120029D01*
X0010029Y0121632D01*
X0009624Y0121800D01*
X0010029Y0121968D01*
X0011632Y0123571D01*
X0012500Y0125666D01*
X0012500Y0127934D01*
X0011632Y0130029D01*
X0010029Y0131632D01*
X0009624Y0131800D01*
X0010029Y0131968D01*
X0011632Y0133571D01*
X0012500Y0135666D01*
X0012500Y0137934D01*
X0011632Y0140029D01*
X0010029Y0141632D01*
X0007934Y0142500D01*
X0006600Y0142500D01*
X0006600Y0193850D01*
X0010049Y0193850D01*
X0009456Y0192418D01*
X0009456Y0189390D01*
X0010614Y0186593D01*
X0012755Y0184452D01*
X0015552Y0183294D01*
X0018580Y0183294D01*
X0021377Y0184452D01*
X0023517Y0186593D01*
X0024676Y0189390D01*
X0024676Y0192418D01*
X0024083Y0193850D01*
X0045281Y0193850D01*
X0044182Y0192751D01*
X0043425Y0190925D01*
X0043425Y0188948D01*
X0044182Y0187122D01*
X0045579Y0185725D01*
X0047406Y0184968D01*
X0049382Y0184968D01*
X0051208Y0185725D01*
X0052606Y0187122D01*
X0052608Y0187127D01*
X0053676Y0186058D01*
X0055358Y0185362D01*
X0057178Y0185362D01*
X0058859Y0186058D01*
X0060146Y0187345D01*
X0060205Y0187487D01*
X0060264Y0187345D01*
X0061550Y0186058D01*
X0063232Y0185362D01*
X0065052Y0185362D01*
X0066733Y0186058D01*
X0068020Y0187345D01*
X0068079Y0187487D01*
X0068138Y0187345D01*
X0069425Y0186058D01*
X0071106Y0185362D01*
X0072926Y0185362D01*
X0074607Y0186058D01*
X0074921Y0186373D01*
X0074921Y0186140D01*
X0076093Y0184968D01*
X0083687Y0184968D01*
X0084858Y0186140D01*
X0084858Y0193734D01*
X0084742Y0193850D01*
X0099845Y0193850D01*
X0097200Y0191205D01*
X0098017Y0192023D02*
X0084858Y0192023D01*
X0084858Y0193621D02*
X0099616Y0193621D01*
X0103984Y0193621D02*
X0193850Y0193621D01*
X0191939Y0192023D02*
X0178072Y0192023D01*
X0179940Y0190424D02*
X0189844Y0190424D01*
X0194159Y0187000D02*
X0194320Y0186839D01*
X0194159Y0187000D02*
X0175302Y0187000D01*
X0175302Y0168298D01*
X0176800Y0166800D01*
X0172200Y0166447D02*
X0141400Y0166447D01*
X0141400Y0164895D02*
X0138705Y0162200D01*
X0135360Y0162200D01*
X0139174Y0158386D01*
X0139600Y0157357D01*
X0139600Y0117960D01*
X0163386Y0094174D01*
X0164174Y0093386D01*
X0164600Y0092357D01*
X0164600Y0062960D01*
X0166976Y0060584D01*
X0167553Y0060584D01*
X0168944Y0060008D01*
X0170008Y0058944D01*
X0170584Y0057553D01*
X0170584Y0056047D01*
X0170008Y0054656D01*
X0168944Y0053592D01*
X0167553Y0053016D01*
X0166047Y0053016D01*
X0164656Y0053592D01*
X0163592Y0054656D01*
X0163016Y0056047D01*
X0163016Y0056624D01*
X0159426Y0060214D01*
X0159000Y0061243D01*
X0159000Y0090640D01*
X0134426Y0115214D01*
X0134000Y0116243D01*
X0134000Y0155640D01*
X0130640Y0159000D01*
X0119352Y0159000D01*
X0118944Y0158592D01*
X0117553Y0158016D01*
X0116047Y0158016D01*
X0114656Y0158592D01*
X0113592Y0159656D01*
X0113016Y0161047D01*
X0113016Y0162553D01*
X0113592Y0163944D01*
X0114656Y0165008D01*
X0116047Y0165584D01*
X0117553Y0165584D01*
X0118944Y0165008D01*
X0119352Y0164600D01*
X0132357Y0164600D01*
X0132592Y0164503D01*
X0132200Y0164895D01*
X0132200Y0168705D01*
X0134895Y0171400D01*
X0138705Y0171400D01*
X0141400Y0168705D01*
X0141400Y0164895D01*
X0141354Y0164848D02*
X0172246Y0164848D01*
X0173845Y0163250D02*
X0139755Y0163250D01*
X0137507Y0160053D02*
X0189481Y0160053D01*
X0191070Y0161651D02*
X0135909Y0161651D01*
X0132246Y0164848D02*
X0119104Y0164848D01*
X0116800Y0161800D02*
X0131800Y0161800D01*
X0136800Y0156800D01*
X0136800Y0116800D01*
X0161800Y0091800D01*
X0161800Y0061800D01*
X0166800Y0056800D01*
X0169605Y0059346D02*
X0193850Y0059346D01*
X0193850Y0057748D02*
X0170503Y0057748D01*
X0170584Y0056149D02*
X0193850Y0056149D01*
X0193850Y0054551D02*
X0169903Y0054551D01*
X0163697Y0054551D02*
X0123154Y0054551D01*
X0123300Y0054406D02*
X0122006Y0055700D01*
X0120315Y0056400D01*
X0113285Y0056400D01*
X0111594Y0055700D01*
X0110300Y0054406D01*
X0109600Y0052715D01*
X0109600Y0050885D01*
X0110300Y0049194D01*
X0111594Y0047900D01*
X0113285Y0047200D01*
X0120315Y0047200D01*
X0122006Y0047900D01*
X0123300Y0049194D01*
X0124000Y0050885D01*
X0124000Y0052715D01*
X0123300Y0054406D01*
X0123902Y0052952D02*
X0193850Y0052952D01*
X0193850Y0051354D02*
X0124000Y0051354D01*
X0123532Y0049755D02*
X0193850Y0049755D01*
X0193850Y0048157D02*
X0122262Y0048157D01*
X0122006Y0045700D02*
X0120315Y0046400D01*
X0113285Y0046400D01*
X0111594Y0045700D01*
X0110300Y0044406D01*
X0109600Y0042715D01*
X0109600Y0040885D01*
X0110300Y0039194D01*
X0111594Y0037900D01*
X0113285Y0037200D01*
X0120315Y0037200D01*
X0122006Y0037900D01*
X0123300Y0039194D01*
X0124000Y0040885D01*
X0124000Y0042715D01*
X0123300Y0044406D01*
X0122006Y0045700D01*
X0122746Y0044960D02*
X0193850Y0044960D01*
X0193850Y0046558D02*
X0066001Y0046558D01*
X0064403Y0048157D02*
X0081338Y0048157D01*
X0081594Y0047900D02*
X0083285Y0047200D01*
X0090315Y0047200D01*
X0092006Y0047900D01*
X0093300Y0049194D01*
X0094000Y0050885D01*
X0094000Y0052715D01*
X0093300Y0054406D01*
X0092006Y0055700D01*
X0090315Y0056400D01*
X0083285Y0056400D01*
X0081594Y0055700D01*
X0080300Y0054406D01*
X0079600Y0052715D01*
X0079600Y0050885D01*
X0080300Y0049194D01*
X0081594Y0047900D01*
X0081594Y0045700D02*
X0080300Y0044406D01*
X0079600Y0042715D01*
X0079600Y0040885D01*
X0080300Y0039194D01*
X0081594Y0037900D01*
X0083285Y0037200D01*
X0090315Y0037200D01*
X0092006Y0037900D01*
X0093300Y0039194D01*
X0094000Y0040885D01*
X0094000Y0042715D01*
X0093300Y0044406D01*
X0092006Y0045700D01*
X0090315Y0046400D01*
X0083285Y0046400D01*
X0081594Y0045700D01*
X0080854Y0044960D02*
X0067600Y0044960D01*
X0067960Y0044600D02*
X0054600Y0057960D01*
X0054600Y0127357D01*
X0054174Y0128386D01*
X0034600Y0147960D01*
X0034600Y0166676D01*
X0034852Y0166493D01*
X0035465Y0166180D01*
X0036120Y0165968D01*
X0036800Y0165860D01*
X0037144Y0165860D01*
X0037144Y0170234D01*
X0037145Y0170234D01*
X0037145Y0170235D02*
X0037145Y0170235D01*
X0041519Y0170235D01*
X0041519Y0170579D01*
X0041412Y0171259D01*
X0041199Y0171914D01*
X0040886Y0172527D01*
X0040481Y0173085D01*
X0040323Y0173243D01*
X0041023Y0173942D01*
X0041719Y0175624D01*
X0041719Y0177444D01*
X0041023Y0179125D01*
X0040465Y0179683D01*
X0041023Y0180242D01*
X0041719Y0181923D01*
X0041719Y0183743D01*
X0041023Y0185424D01*
X0039736Y0186711D01*
X0038055Y0187408D01*
X0036235Y0187408D01*
X0034553Y0186711D01*
X0033266Y0185424D01*
X0032783Y0184258D01*
X0031510Y0184258D01*
X0029829Y0183562D01*
X0028542Y0182275D01*
X0027845Y0180593D01*
X0027845Y0178773D01*
X0028542Y0177092D01*
X0029100Y0176534D01*
X0028542Y0175976D01*
X0027845Y0174294D01*
X0027845Y0172474D01*
X0028542Y0170793D01*
X0029000Y0170335D01*
X0029000Y0146243D01*
X0029426Y0145214D01*
X0030214Y0144426D01*
X0049000Y0125640D01*
X0049000Y0056243D01*
X0049426Y0055214D01*
X0050214Y0054426D01*
X0065214Y0039426D01*
X0066243Y0039000D01*
X0070640Y0039000D01*
X0074000Y0035640D01*
X0074000Y0026243D01*
X0074426Y0025214D01*
X0075214Y0024426D01*
X0080197Y0019443D01*
X0080300Y0019194D01*
X0081594Y0017900D01*
X0083285Y0017200D01*
X0090315Y0017200D01*
X0092006Y0017900D01*
X0093300Y0019194D01*
X0094000Y0020885D01*
X0094000Y0022715D01*
X0093300Y0024406D01*
X0092006Y0025700D01*
X0090315Y0026400D01*
X0083285Y0026400D01*
X0081782Y0025778D01*
X0081783Y0025778D01*
X0081782Y0025778D02*
X0079600Y0027960D01*
X0079600Y0037357D01*
X0079174Y0038386D01*
X0074174Y0043386D01*
X0073386Y0044174D01*
X0072357Y0044600D01*
X0067960Y0044600D01*
X0066800Y0041800D02*
X0051800Y0056800D01*
X0051800Y0126800D01*
X0031800Y0146800D01*
X0031800Y0173296D01*
X0032420Y0173384D01*
X0028356Y0171242D02*
X0006600Y0171242D01*
X0006600Y0169644D02*
X0015238Y0169644D01*
X0015552Y0169774D02*
X0012755Y0168615D01*
X0010614Y0166475D01*
X0009456Y0163678D01*
X0009456Y0160650D01*
X0010614Y0157853D01*
X0012755Y0155712D01*
X0015552Y0154554D01*
X0018580Y0154554D01*
X0021377Y0155712D01*
X0023517Y0157853D01*
X0024676Y0160650D01*
X0024676Y0163678D01*
X0023517Y0166475D01*
X0021377Y0168615D01*
X0018580Y0169774D01*
X0015552Y0169774D01*
X0018894Y0169644D02*
X0029000Y0169644D01*
X0029000Y0168045D02*
X0021947Y0168045D01*
X0023529Y0166447D02*
X0029000Y0166447D01*
X0029000Y0164848D02*
X0024191Y0164848D01*
X0024676Y0163250D02*
X0029000Y0163250D01*
X0029000Y0161651D02*
X0024676Y0161651D01*
X0024429Y0160053D02*
X0029000Y0160053D01*
X0029000Y0158454D02*
X0023766Y0158454D01*
X0022520Y0156856D02*
X0029000Y0156856D01*
X0029000Y0155257D02*
X0020278Y0155257D01*
X0013853Y0155257D02*
X0006600Y0155257D01*
X0006600Y0153659D02*
X0029000Y0153659D01*
X0029000Y0152060D02*
X0006600Y0152060D01*
X0006600Y0150462D02*
X0029000Y0150462D01*
X0029000Y0148863D02*
X0006600Y0148863D01*
X0006600Y0147265D02*
X0029000Y0147265D01*
X0029239Y0145666D02*
X0006600Y0145666D01*
X0006600Y0144068D02*
X0030573Y0144068D01*
X0032171Y0142469D02*
X0008009Y0142469D01*
X0010791Y0140870D02*
X0033770Y0140870D01*
X0035368Y0139272D02*
X0011946Y0139272D01*
X0012500Y0137673D02*
X0036967Y0137673D01*
X0038565Y0136075D02*
X0012500Y0136075D01*
X0012007Y0134476D02*
X0040164Y0134476D01*
X0041762Y0132878D02*
X0010939Y0132878D01*
X0010382Y0131279D02*
X0043361Y0131279D01*
X0044959Y0129681D02*
X0011776Y0129681D01*
X0012438Y0128082D02*
X0046558Y0128082D01*
X0048156Y0126484D02*
X0012500Y0126484D01*
X0012177Y0124885D02*
X0049000Y0124885D01*
X0049000Y0123287D02*
X0011348Y0123287D01*
X0009893Y0121688D02*
X0049000Y0121688D01*
X0049000Y0120090D02*
X0011571Y0120090D01*
X0012269Y0118491D02*
X0049000Y0118491D01*
X0049000Y0116893D02*
X0012500Y0116893D01*
X0012346Y0115294D02*
X0049000Y0115294D01*
X0049000Y0113696D02*
X0011684Y0113696D01*
X0010158Y0112097D02*
X0049000Y0112097D01*
X0049000Y0110499D02*
X0011162Y0110499D01*
X0012100Y0108900D02*
X0049000Y0108900D01*
X0049000Y0107302D02*
X0012500Y0107302D01*
X0012500Y0105703D02*
X0049000Y0105703D01*
X0049000Y0104105D02*
X0011853Y0104105D01*
X0010567Y0102506D02*
X0049000Y0102506D01*
X0049000Y0100908D02*
X0010753Y0100908D01*
X0011930Y0099309D02*
X0049000Y0099309D01*
X0049000Y0097711D02*
X0012500Y0097711D01*
X0012500Y0096112D02*
X0049000Y0096112D01*
X0049000Y0094514D02*
X0012023Y0094514D01*
X0010976Y0092915D02*
X0049000Y0092915D01*
X0049000Y0091317D02*
X0010344Y0091317D01*
X0011761Y0089718D02*
X0039366Y0089718D01*
X0038251Y0088120D02*
X0012423Y0088120D01*
X0012500Y0086521D02*
X0037561Y0086521D01*
X0035963Y0084923D02*
X0012192Y0084923D01*
X0011385Y0083324D02*
X0034364Y0083324D01*
X0032766Y0081726D02*
X0009803Y0081726D01*
X0011534Y0080127D02*
X0031167Y0080127D01*
X0031800Y0076800D02*
X0041800Y0086800D01*
X0043297Y0083324D02*
X0049000Y0083324D01*
X0049000Y0081726D02*
X0040685Y0081726D01*
X0039087Y0080127D02*
X0049000Y0080127D01*
X0049000Y0078529D02*
X0037488Y0078529D01*
X0035890Y0076930D02*
X0049000Y0076930D01*
X0049000Y0075332D02*
X0034291Y0075332D01*
X0031800Y0076800D02*
X0006800Y0076800D01*
X0011699Y0073733D02*
X0049000Y0073733D01*
X0049000Y0072134D02*
X0010196Y0072134D01*
X0010842Y0070536D02*
X0049000Y0070536D01*
X0049000Y0068937D02*
X0011884Y0068937D01*
X0012283Y0067339D02*
X0049000Y0067339D01*
X0049000Y0065740D02*
X0012201Y0065740D01*
X0012165Y0065512D02*
X0012300Y0066367D01*
X0012300Y0066600D01*
X0007000Y0066600D01*
X0007000Y0061300D01*
X0007233Y0061300D01*
X0008088Y0061435D01*
X0008911Y0061703D01*
X0009683Y0062096D01*
X0010383Y0062605D01*
X0010995Y0063217D01*
X0011504Y0063917D01*
X0011897Y0064689D01*
X0012165Y0065512D01*
X0011618Y0064142D02*
X0049000Y0064142D01*
X0049000Y0062543D02*
X0010298Y0062543D01*
X0007000Y0062543D02*
X0006600Y0062543D01*
X0006600Y0060945D02*
X0049000Y0060945D01*
X0049000Y0059346D02*
X0006600Y0059346D01*
X0006600Y0057748D02*
X0049000Y0057748D01*
X0049039Y0056149D02*
X0006600Y0056149D01*
X0006600Y0054551D02*
X0050089Y0054551D01*
X0049788Y0052952D02*
X0051688Y0052952D01*
X0051386Y0051354D02*
X0053286Y0051354D01*
X0054885Y0049755D02*
X0051400Y0049755D01*
X0051400Y0048157D02*
X0056483Y0048157D01*
X0058082Y0046558D02*
X0050429Y0046558D01*
X0048831Y0044960D02*
X0059680Y0044960D01*
X0061279Y0043361D02*
X0045310Y0043361D01*
X0043950Y0041763D02*
X0062877Y0041763D01*
X0064476Y0040164D02*
X0042591Y0040164D01*
X0041231Y0038566D02*
X0071074Y0038566D01*
X0072673Y0036967D02*
X0039871Y0036967D01*
X0038512Y0035369D02*
X0063863Y0035369D01*
X0064895Y0036400D02*
X0062200Y0033705D01*
X0062200Y0029895D01*
X0064895Y0027200D01*
X0068705Y0027200D01*
X0071400Y0029895D01*
X0071400Y0033705D01*
X0068705Y0036400D01*
X0064895Y0036400D01*
X0062265Y0033770D02*
X0037152Y0033770D01*
X0035792Y0032172D02*
X0062200Y0032172D01*
X0062200Y0030573D02*
X0034432Y0030573D01*
X0031800Y0031800D02*
X0046800Y0049435D01*
X0043812Y0052952D02*
X0034129Y0052952D01*
X0033969Y0053112D02*
X0030158Y0053112D01*
X0027463Y0050418D01*
X0027463Y0046607D01*
X0030158Y0043912D01*
X0033969Y0043912D01*
X0036663Y0046607D01*
X0036663Y0050418D01*
X0033969Y0053112D01*
X0035727Y0051354D02*
X0042214Y0051354D01*
X0042200Y0049755D02*
X0036663Y0049755D01*
X0036663Y0048157D02*
X0042037Y0048157D01*
X0040678Y0046558D02*
X0036615Y0046558D01*
X0035016Y0044960D02*
X0039318Y0044960D01*
X0037958Y0043361D02*
X0021677Y0043361D01*
X0020516Y0042200D02*
X0023210Y0044895D01*
X0023210Y0048705D01*
X0020516Y0051400D01*
X0016705Y0051400D01*
X0014010Y0048705D01*
X0014010Y0044895D01*
X0016705Y0042200D01*
X0020516Y0042200D01*
X0023210Y0044960D02*
X0029111Y0044960D01*
X0027512Y0046558D02*
X0023210Y0046558D01*
X0023210Y0048157D02*
X0027463Y0048157D01*
X0027463Y0049755D02*
X0022160Y0049755D01*
X0020562Y0051354D02*
X0028399Y0051354D01*
X0029998Y0052952D02*
X0006600Y0052952D01*
X0006600Y0051354D02*
X0006659Y0051354D01*
X0010562Y0051354D02*
X0016659Y0051354D01*
X0015060Y0049755D02*
X0012160Y0049755D01*
X0013210Y0048157D02*
X0014010Y0048157D01*
X0014010Y0046558D02*
X0013210Y0046558D01*
X0013210Y0044960D02*
X0014010Y0044960D01*
X0015544Y0043361D02*
X0011677Y0043361D01*
X0006600Y0041763D02*
X0036598Y0041763D01*
X0035239Y0040164D02*
X0006600Y0040164D01*
X0006600Y0038566D02*
X0033879Y0038566D01*
X0032519Y0036967D02*
X0013720Y0036967D01*
X0015792Y0035369D02*
X0031160Y0035369D01*
X0031800Y0031800D02*
X0011300Y0031800D01*
X0008880Y0036967D02*
X0006600Y0036967D01*
X0006600Y0035369D02*
X0006808Y0035369D01*
X0014937Y0027376D02*
X0064718Y0027376D01*
X0064977Y0026200D02*
X0062400Y0023623D01*
X0062400Y0021800D01*
X0066800Y0021800D01*
X0066800Y0021800D01*
X0066800Y0026200D01*
X0068623Y0026200D01*
X0071200Y0023623D01*
X0071200Y0021800D01*
X0066800Y0021800D01*
X0066800Y0021800D01*
X0066800Y0021800D01*
X0066800Y0026200D01*
X0064977Y0026200D01*
X0064555Y0025778D02*
X0016383Y0025778D01*
X0017484Y0024179D02*
X0062957Y0024179D01*
X0062400Y0022581D02*
X0018000Y0022581D01*
X0018000Y0020982D02*
X0062400Y0020982D01*
X0062400Y0021800D02*
X0062400Y0019977D01*
X0064977Y0017400D01*
X0066800Y0017400D01*
X0068623Y0017400D01*
X0071200Y0019977D01*
X0071200Y0021800D01*
X0066800Y0021800D01*
X0066800Y0017400D01*
X0066800Y0021800D01*
X0066800Y0021800D01*
X0062400Y0021800D01*
X0062994Y0019384D02*
X0017469Y0019384D01*
X0016346Y0017785D02*
X0064592Y0017785D01*
X0066800Y0017785D02*
X0066800Y0017785D01*
X0066800Y0019384D02*
X0066800Y0019384D01*
X0066800Y0020982D02*
X0066800Y0020982D01*
X0066800Y0022581D02*
X0066800Y0022581D01*
X0066800Y0024179D02*
X0066800Y0024179D01*
X0066800Y0025778D02*
X0066800Y0025778D01*
X0069045Y0025778D02*
X0074193Y0025778D01*
X0074000Y0027376D02*
X0068882Y0027376D01*
X0070480Y0028975D02*
X0074000Y0028975D01*
X0074000Y0030573D02*
X0071400Y0030573D01*
X0071400Y0032172D02*
X0074000Y0032172D01*
X0074000Y0033770D02*
X0071335Y0033770D01*
X0069737Y0035369D02*
X0074000Y0035369D01*
X0076800Y0036800D02*
X0071800Y0041800D01*
X0066800Y0041800D01*
X0074198Y0043361D02*
X0079868Y0043361D01*
X0079600Y0041763D02*
X0075797Y0041763D01*
X0077396Y0040164D02*
X0079899Y0040164D01*
X0078994Y0038566D02*
X0080929Y0038566D01*
X0079600Y0036967D02*
X0193850Y0036967D01*
X0193850Y0035369D02*
X0122337Y0035369D01*
X0122006Y0035700D02*
X0120315Y0036400D01*
X0113285Y0036400D01*
X0111594Y0035700D01*
X0110300Y0034406D01*
X0109600Y0032715D01*
X0109600Y0030885D01*
X0110300Y0029194D01*
X0111594Y0027900D01*
X0113285Y0027200D01*
X0120315Y0027200D01*
X0122006Y0027900D01*
X0123300Y0029194D01*
X0124000Y0030885D01*
X0124000Y0032715D01*
X0123300Y0034406D01*
X0122006Y0035700D01*
X0123563Y0033770D02*
X0193850Y0033770D01*
X0193850Y0032172D02*
X0124000Y0032172D01*
X0123871Y0030573D02*
X0193850Y0030573D01*
X0193850Y0028975D02*
X0123080Y0028975D01*
X0120740Y0027376D02*
X0193850Y0027376D01*
X0193850Y0025778D02*
X0121817Y0025778D01*
X0122006Y0025700D02*
X0120315Y0026400D01*
X0113285Y0026400D01*
X0111594Y0025700D01*
X0110300Y0024406D01*
X0109600Y0022715D01*
X0109600Y0020885D01*
X0110300Y0019194D01*
X0111594Y0017900D01*
X0113285Y0017200D01*
X0120315Y0017200D01*
X0122006Y0017900D01*
X0123300Y0019194D01*
X0124000Y0020885D01*
X0124000Y0022715D01*
X0123300Y0024406D01*
X0122006Y0025700D01*
X0123394Y0024179D02*
X0193850Y0024179D01*
X0193850Y0022581D02*
X0124000Y0022581D01*
X0124000Y0020982D02*
X0193850Y0020982D01*
X0193850Y0019384D02*
X0123378Y0019384D01*
X0121728Y0017785D02*
X0193850Y0017785D01*
X0193850Y0016187D02*
X0143919Y0016187D01*
X0143705Y0016400D02*
X0139895Y0016400D01*
X0137200Y0013705D01*
X0137200Y0009895D01*
X0139895Y0007200D01*
X0143705Y0007200D01*
X0146400Y0009895D01*
X0146400Y0013705D01*
X0143705Y0016400D01*
X0145517Y0014588D02*
X0193850Y0014588D01*
X0193850Y0012990D02*
X0146400Y0012990D01*
X0146400Y0011391D02*
X0193850Y0011391D01*
X0193850Y0009793D02*
X0146298Y0009793D01*
X0144699Y0008194D02*
X0193850Y0008194D01*
X0193850Y0038566D02*
X0122671Y0038566D01*
X0123701Y0040164D02*
X0193850Y0040164D01*
X0193850Y0041763D02*
X0124000Y0041763D01*
X0123732Y0043361D02*
X0193850Y0043361D01*
X0193850Y0060945D02*
X0166615Y0060945D01*
X0165016Y0062543D02*
X0190802Y0062543D01*
X0189482Y0064142D02*
X0164600Y0064142D01*
X0164600Y0065740D02*
X0188899Y0065740D01*
X0188817Y0067339D02*
X0164600Y0067339D01*
X0164600Y0068937D02*
X0189216Y0068937D01*
X0190258Y0070536D02*
X0164600Y0070536D01*
X0164600Y0072134D02*
X0190904Y0072134D01*
X0189401Y0073733D02*
X0164600Y0073733D01*
X0164600Y0075332D02*
X0188739Y0075332D01*
X0188600Y0076930D02*
X0164600Y0076930D01*
X0164600Y0078529D02*
X0188846Y0078529D01*
X0189566Y0080127D02*
X0164600Y0080127D01*
X0164600Y0081726D02*
X0191297Y0081726D01*
X0189715Y0083324D02*
X0164600Y0083324D01*
X0164600Y0084923D02*
X0188908Y0084923D01*
X0188600Y0086521D02*
X0164600Y0086521D01*
X0164600Y0088120D02*
X0188677Y0088120D01*
X0189339Y0089718D02*
X0164600Y0089718D01*
X0164600Y0091317D02*
X0190756Y0091317D01*
X0190124Y0092915D02*
X0164369Y0092915D01*
X0163046Y0094514D02*
X0189077Y0094514D01*
X0188600Y0096112D02*
X0161448Y0096112D01*
X0159849Y0097711D02*
X0188600Y0097711D01*
X0189170Y0099309D02*
X0158251Y0099309D01*
X0156652Y0100908D02*
X0190347Y0100908D01*
X0190533Y0102506D02*
X0155054Y0102506D01*
X0153455Y0104105D02*
X0189247Y0104105D01*
X0188600Y0105703D02*
X0151857Y0105703D01*
X0150258Y0107302D02*
X0188600Y0107302D01*
X0189000Y0108900D02*
X0148660Y0108900D01*
X0147061Y0110499D02*
X0189938Y0110499D01*
X0190942Y0112097D02*
X0145463Y0112097D01*
X0143864Y0113696D02*
X0189416Y0113696D01*
X0188754Y0115294D02*
X0142265Y0115294D01*
X0140667Y0116893D02*
X0188600Y0116893D01*
X0188831Y0118491D02*
X0153701Y0118491D01*
X0155188Y0120090D02*
X0189529Y0120090D01*
X0191207Y0121688D02*
X0155648Y0121688D01*
X0157247Y0123287D02*
X0189752Y0123287D01*
X0188923Y0124885D02*
X0158845Y0124885D01*
X0160444Y0126484D02*
X0188600Y0126484D01*
X0188662Y0128082D02*
X0162042Y0128082D01*
X0163641Y0129681D02*
X0189324Y0129681D01*
X0190718Y0131279D02*
X0165239Y0131279D01*
X0166838Y0132878D02*
X0190161Y0132878D01*
X0189093Y0134476D02*
X0168436Y0134476D01*
X0170035Y0136075D02*
X0188600Y0136075D01*
X0188600Y0137673D02*
X0171633Y0137673D01*
X0173232Y0139272D02*
X0189154Y0139272D01*
X0190309Y0140870D02*
X0174830Y0140870D01*
X0176429Y0142469D02*
X0190629Y0142469D01*
X0194320Y0146839D02*
X0176839Y0146839D01*
X0151800Y0121800D01*
X0148412Y0120090D02*
X0139600Y0120090D01*
X0139600Y0121688D02*
X0148016Y0121688D01*
X0148320Y0123287D02*
X0139600Y0123287D01*
X0139600Y0124885D02*
X0149534Y0124885D01*
X0150886Y0128082D02*
X0139600Y0128082D01*
X0139600Y0126484D02*
X0152524Y0126484D01*
X0152714Y0128082D02*
X0154123Y0128082D01*
X0155018Y0129681D02*
X0155721Y0129681D01*
X0155584Y0131279D02*
X0157320Y0131279D01*
X0156838Y0132878D02*
X0158918Y0132878D01*
X0158436Y0134476D02*
X0160517Y0134476D01*
X0160035Y0136075D02*
X0162115Y0136075D01*
X0161633Y0137673D02*
X0163714Y0137673D01*
X0163232Y0139272D02*
X0165312Y0139272D01*
X0164830Y0140870D02*
X0166911Y0140870D01*
X0166429Y0142469D02*
X0168509Y0142469D01*
X0168027Y0144068D02*
X0170108Y0144068D01*
X0169626Y0145666D02*
X0171706Y0145666D01*
X0171224Y0147265D02*
X0173305Y0147265D01*
X0172823Y0148863D02*
X0174903Y0148863D01*
X0174421Y0150462D02*
X0189881Y0150462D01*
X0191038Y0152060D02*
X0176020Y0152060D01*
X0177618Y0153659D02*
X0189468Y0153659D01*
X0194320Y0156839D02*
X0176839Y0156839D01*
X0151800Y0131800D01*
X0149125Y0134476D02*
X0139600Y0134476D01*
X0139600Y0132878D02*
X0148150Y0132878D01*
X0148016Y0131279D02*
X0139600Y0131279D01*
X0139600Y0129681D02*
X0148582Y0129681D01*
X0152115Y0136075D02*
X0139600Y0136075D01*
X0139600Y0137673D02*
X0153714Y0137673D01*
X0155312Y0139272D02*
X0139600Y0139272D01*
X0139600Y0140870D02*
X0156911Y0140870D01*
X0158509Y0142469D02*
X0139600Y0142469D01*
X0139600Y0144068D02*
X0160108Y0144068D01*
X0161706Y0145666D02*
X0139600Y0145666D01*
X0139600Y0147265D02*
X0163305Y0147265D01*
X0164903Y0148863D02*
X0139600Y0148863D01*
X0139600Y0150462D02*
X0166502Y0150462D01*
X0168100Y0152060D02*
X0139600Y0152060D01*
X0139600Y0153659D02*
X0169699Y0153659D01*
X0171297Y0155257D02*
X0139600Y0155257D01*
X0139600Y0156856D02*
X0172896Y0156856D01*
X0174494Y0158454D02*
X0139106Y0158454D01*
X0134000Y0155257D02*
X0129848Y0155257D01*
X0128705Y0156400D02*
X0124895Y0156400D01*
X0123100Y0154605D01*
X0122006Y0155700D01*
X0120315Y0156400D01*
X0113285Y0156400D01*
X0111594Y0155700D01*
X0110300Y0154406D01*
X0109600Y0152715D01*
X0109600Y0150885D01*
X0110300Y0149194D01*
X0111594Y0147900D01*
X0113285Y0147200D01*
X0120315Y0147200D01*
X0122006Y0147900D01*
X0123100Y0148995D01*
X0124895Y0147200D01*
X0128705Y0147200D01*
X0131400Y0149895D01*
X0131400Y0153705D01*
X0128705Y0156400D01*
X0131186Y0158454D02*
X0118611Y0158454D01*
X0114989Y0158454D02*
X0045211Y0158454D01*
X0045212Y0158451D02*
X0045008Y0158944D01*
X0043944Y0160008D01*
X0042553Y0160584D01*
X0041047Y0160584D01*
X0039656Y0160008D01*
X0038592Y0158944D01*
X0038016Y0157553D01*
X0038016Y0156047D01*
X0038592Y0154656D01*
X0039656Y0153592D01*
X0041047Y0153016D01*
X0042553Y0153016D01*
X0043127Y0153254D01*
X0065744Y0144207D01*
X0066243Y0144000D01*
X0066261Y0144000D01*
X0066277Y0143993D01*
X0066817Y0144000D01*
X0080132Y0144000D01*
X0079600Y0142715D01*
X0079600Y0140885D01*
X0080300Y0139194D01*
X0081594Y0137900D01*
X0083285Y0137200D01*
X0090315Y0137200D01*
X0092006Y0137900D01*
X0093300Y0139194D01*
X0094000Y0140885D01*
X0094000Y0142715D01*
X0093468Y0144000D01*
X0095640Y0144000D01*
X0104000Y0135640D01*
X0104000Y0103560D01*
X0103386Y0104174D01*
X0098386Y0109174D01*
X0097357Y0109600D01*
X0093468Y0109600D01*
X0094000Y0110885D01*
X0094000Y0112715D01*
X0093300Y0114406D01*
X0092006Y0115700D01*
X0090315Y0116400D01*
X0083285Y0116400D01*
X0081594Y0115700D01*
X0080300Y0114406D01*
X0079672Y0112888D01*
X0059600Y0132960D01*
X0059600Y0139248D01*
X0060008Y0139656D01*
X0060584Y0141047D01*
X0060584Y0142553D01*
X0060008Y0143944D01*
X0058944Y0145008D01*
X0057553Y0145584D01*
X0056047Y0145584D01*
X0054656Y0145008D01*
X0053592Y0143944D01*
X0053016Y0142553D01*
X0053016Y0141047D01*
X0053592Y0139656D01*
X0054000Y0139248D01*
X0054000Y0131243D01*
X0054426Y0130214D01*
X0079426Y0105214D01*
X0080214Y0104426D01*
X0080295Y0104393D01*
X0079600Y0102715D01*
X0079600Y0100885D01*
X0080300Y0099194D01*
X0081594Y0097900D01*
X0083285Y0097200D01*
X0090315Y0097200D01*
X0092006Y0097900D01*
X0093300Y0099194D01*
X0094000Y0100885D01*
X0094000Y0102715D01*
X0093468Y0104000D01*
X0095640Y0104000D01*
X0099000Y0100640D01*
X0099000Y0086243D01*
X0099426Y0085214D01*
X0104426Y0080214D01*
X0105214Y0079426D01*
X0106243Y0079000D01*
X0110495Y0079000D01*
X0111594Y0077900D01*
X0113285Y0077200D01*
X0120315Y0077200D01*
X0122006Y0077900D01*
X0123300Y0079194D01*
X0124000Y0080885D01*
X0124000Y0082715D01*
X0123300Y0084406D01*
X0122006Y0085700D01*
X0120315Y0086400D01*
X0113285Y0086400D01*
X0111594Y0085700D01*
X0110495Y0084600D01*
X0107960Y0084600D01*
X0104600Y0087960D01*
X0104600Y0095040D01*
X0105214Y0094426D01*
X0110197Y0089443D01*
X0110300Y0089194D01*
X0111594Y0087900D01*
X0113285Y0087200D01*
X0120315Y0087200D01*
X0122006Y0087900D01*
X0123300Y0089194D01*
X0124000Y0090885D01*
X0124000Y0092715D01*
X0123300Y0094406D01*
X0122006Y0095700D01*
X0120315Y0096400D01*
X0113285Y0096400D01*
X0111782Y0095778D01*
X0109600Y0097960D01*
X0109600Y0137357D01*
X0109174Y0138386D01*
X0098386Y0149174D01*
X0097357Y0149600D01*
X0093468Y0149600D01*
X0094000Y0150885D01*
X0094000Y0152715D01*
X0093300Y0154406D01*
X0092006Y0155700D01*
X0090315Y0156400D01*
X0083285Y0156400D01*
X0081594Y0155700D01*
X0080300Y0154406D01*
X0079600Y0152715D01*
X0079600Y0150885D01*
X0080132Y0149600D01*
X0067339Y0149600D01*
X0045212Y0158451D01*
X0043836Y0160053D02*
X0113428Y0160053D01*
X0113016Y0161651D02*
X0034600Y0161651D01*
X0034600Y0160053D02*
X0039764Y0160053D01*
X0038389Y0158454D02*
X0034600Y0158454D01*
X0034600Y0156856D02*
X0038016Y0156856D01*
X0038343Y0155257D02*
X0034600Y0155257D01*
X0034600Y0153659D02*
X0039590Y0153659D01*
X0041800Y0156800D02*
X0066800Y0146800D01*
X0096800Y0146800D01*
X0106800Y0136800D01*
X0106800Y0096800D01*
X0111800Y0091800D01*
X0116800Y0091800D01*
X0112590Y0096112D02*
X0111448Y0096112D01*
X0112052Y0097711D02*
X0109849Y0097711D01*
X0110300Y0099194D02*
X0111594Y0097900D01*
X0113285Y0097200D01*
X0120315Y0097200D01*
X0122006Y0097900D01*
X0123300Y0099194D01*
X0124000Y0100885D01*
X0124000Y0102715D01*
X0123300Y0104406D01*
X0122006Y0105700D01*
X0120315Y0106400D01*
X0113285Y0106400D01*
X0111594Y0105700D01*
X0110300Y0104406D01*
X0109600Y0102715D01*
X0109600Y0100885D01*
X0110300Y0099194D01*
X0110253Y0099309D02*
X0109600Y0099309D01*
X0109600Y0100908D02*
X0109600Y0100908D01*
X0109600Y0102506D02*
X0109600Y0102506D01*
X0109600Y0104105D02*
X0110176Y0104105D01*
X0109600Y0105703D02*
X0111603Y0105703D01*
X0113039Y0107302D02*
X0109600Y0107302D01*
X0109600Y0108900D02*
X0110594Y0108900D01*
X0110300Y0109194D02*
X0111594Y0107900D01*
X0113285Y0107200D01*
X0120315Y0107200D01*
X0122006Y0107900D01*
X0123300Y0109194D01*
X0124000Y0110885D01*
X0124000Y0112715D01*
X0123300Y0114406D01*
X0122006Y0115700D01*
X0120315Y0116400D01*
X0113285Y0116400D01*
X0111594Y0115700D01*
X0110300Y0114406D01*
X0109600Y0112715D01*
X0109600Y0110885D01*
X0110300Y0109194D01*
X0109760Y0110499D02*
X0109600Y0110499D01*
X0109600Y0112097D02*
X0109600Y0112097D01*
X0109600Y0113696D02*
X0110006Y0113696D01*
X0109600Y0115294D02*
X0111189Y0115294D01*
X0109600Y0116893D02*
X0134000Y0116893D01*
X0134000Y0118491D02*
X0122597Y0118491D01*
X0122006Y0117900D02*
X0123300Y0119194D01*
X0124000Y0120885D01*
X0124000Y0122715D01*
X0123300Y0124406D01*
X0122006Y0125700D01*
X0120315Y0126400D01*
X0113285Y0126400D01*
X0111594Y0125700D01*
X0110300Y0124406D01*
X0109600Y0122715D01*
X0109600Y0120885D01*
X0110300Y0119194D01*
X0111594Y0117900D01*
X0113285Y0117200D01*
X0120315Y0117200D01*
X0122006Y0117900D01*
X0122411Y0115294D02*
X0134393Y0115294D01*
X0135944Y0113696D02*
X0123594Y0113696D01*
X0124000Y0112097D02*
X0137543Y0112097D01*
X0139141Y0110499D02*
X0123840Y0110499D01*
X0123006Y0108900D02*
X0140740Y0108900D01*
X0142338Y0107302D02*
X0120561Y0107302D01*
X0121997Y0105703D02*
X0143937Y0105703D01*
X0145535Y0104105D02*
X0123424Y0104105D01*
X0124000Y0102506D02*
X0147134Y0102506D01*
X0148732Y0100908D02*
X0124000Y0100908D01*
X0123347Y0099309D02*
X0150331Y0099309D01*
X0151930Y0097711D02*
X0121548Y0097711D01*
X0121010Y0096112D02*
X0153528Y0096112D01*
X0155127Y0094514D02*
X0123192Y0094514D01*
X0123917Y0092915D02*
X0156725Y0092915D01*
X0158324Y0091317D02*
X0124000Y0091317D01*
X0123517Y0089718D02*
X0159000Y0089718D01*
X0159000Y0088120D02*
X0122225Y0088120D01*
X0122783Y0084923D02*
X0159000Y0084923D01*
X0159000Y0086521D02*
X0106039Y0086521D01*
X0104600Y0088120D02*
X0111375Y0088120D01*
X0109922Y0089718D02*
X0104600Y0089718D01*
X0104600Y0091317D02*
X0108324Y0091317D01*
X0106725Y0092915D02*
X0104600Y0092915D01*
X0104600Y0094514D02*
X0105127Y0094514D01*
X0099000Y0094514D02*
X0093192Y0094514D01*
X0093300Y0094406D02*
X0092006Y0095700D01*
X0090315Y0096400D01*
X0083285Y0096400D01*
X0081594Y0095700D01*
X0080300Y0094406D01*
X0079600Y0092715D01*
X0079600Y0090885D01*
X0080300Y0089194D01*
X0081594Y0087900D01*
X0083285Y0087200D01*
X0090315Y0087200D01*
X0092006Y0087900D01*
X0093300Y0089194D01*
X0094000Y0090885D01*
X0094000Y0092715D01*
X0093300Y0094406D01*
X0093917Y0092915D02*
X0099000Y0092915D01*
X0099000Y0091317D02*
X0094000Y0091317D01*
X0093517Y0089718D02*
X0099000Y0089718D01*
X0099000Y0088120D02*
X0092225Y0088120D01*
X0091089Y0085878D02*
X0090430Y0086092D01*
X0089746Y0086200D01*
X0086800Y0086200D01*
X0086800Y0081800D01*
X0086800Y0081800D01*
X0093800Y0081800D01*
X0093800Y0082146D01*
X0093692Y0082830D01*
X0093478Y0083489D01*
X0093163Y0084106D01*
X0092756Y0084666D01*
X0092266Y0085156D01*
X0091706Y0085563D01*
X0091089Y0085878D01*
X0092500Y0084923D02*
X0099718Y0084923D01*
X0099000Y0086521D02*
X0054600Y0086521D01*
X0054600Y0084923D02*
X0081100Y0084923D01*
X0081334Y0085156D02*
X0080844Y0084666D01*
X0080437Y0084106D01*
X0080122Y0083489D01*
X0079908Y0082830D01*
X0079800Y0082146D01*
X0079800Y0081800D01*
X0086800Y0081800D01*
X0086800Y0081800D01*
X0086800Y0077400D01*
X0089746Y0077400D01*
X0090430Y0077508D01*
X0091089Y0077722D01*
X0091706Y0078037D01*
X0092266Y0078444D01*
X0092756Y0078934D01*
X0093163Y0079494D01*
X0093478Y0080111D01*
X0093692Y0080770D01*
X0093800Y0081454D01*
X0093800Y0081800D01*
X0086800Y0081800D01*
X0086800Y0081800D01*
X0086800Y0081800D01*
X0086800Y0086200D01*
X0083854Y0086200D01*
X0083170Y0086092D01*
X0082511Y0085878D01*
X0081894Y0085563D01*
X0081334Y0085156D01*
X0080069Y0083324D02*
X0054600Y0083324D01*
X0054600Y0081726D02*
X0063797Y0081726D01*
X0063571Y0081632D02*
X0061968Y0080029D01*
X0061100Y0077934D01*
X0061100Y0075666D01*
X0061968Y0073571D01*
X0063571Y0071968D01*
X0064264Y0071681D01*
X0063917Y0071504D01*
X0063217Y0070995D01*
X0062605Y0070383D01*
X0062096Y0069683D01*
X0061703Y0068911D01*
X0061435Y0068088D01*
X0061300Y0067233D01*
X0061300Y0067000D01*
X0066600Y0067000D01*
X0066600Y0066600D01*
X0061300Y0066600D01*
X0061300Y0066367D01*
X0061435Y0065512D01*
X0061703Y0064689D01*
X0062096Y0063917D01*
X0062605Y0063217D01*
X0063217Y0062605D01*
X0063917Y0062096D01*
X0064264Y0061919D01*
X0063571Y0061632D01*
X0061968Y0060029D01*
X0061100Y0057934D01*
X0061100Y0055666D01*
X0061968Y0053571D01*
X0063571Y0051968D01*
X0065666Y0051100D01*
X0067934Y0051100D01*
X0070029Y0051968D01*
X0071632Y0053571D01*
X0071810Y0054000D01*
X0077357Y0054000D01*
X0078386Y0054426D01*
X0081782Y0057822D01*
X0083285Y0057200D01*
X0090315Y0057200D01*
X0092006Y0057900D01*
X0093300Y0059194D01*
X0094000Y0060885D01*
X0094000Y0062715D01*
X0093300Y0064406D01*
X0092006Y0065700D01*
X0090315Y0066400D01*
X0083285Y0066400D01*
X0081594Y0065700D01*
X0080300Y0064406D01*
X0080197Y0064157D01*
X0079426Y0063386D01*
X0075640Y0059600D01*
X0071810Y0059600D01*
X0071632Y0060029D01*
X0070029Y0061632D01*
X0069336Y0061919D01*
X0069683Y0062096D01*
X0070383Y0062605D01*
X0070995Y0063217D01*
X0071504Y0063917D01*
X0071897Y0064689D01*
X0072165Y0065512D01*
X0072300Y0066367D01*
X0072300Y0066600D01*
X0067000Y0066600D01*
X0067000Y0067000D01*
X0072300Y0067000D01*
X0072300Y0067233D01*
X0072165Y0068088D01*
X0071897Y0068911D01*
X0071504Y0069683D01*
X0070995Y0070383D01*
X0070383Y0070995D01*
X0069683Y0071504D01*
X0069336Y0071681D01*
X0070029Y0071968D01*
X0071632Y0073571D01*
X0071810Y0074000D01*
X0075640Y0074000D01*
X0079426Y0070214D01*
X0080197Y0069443D01*
X0080300Y0069194D01*
X0081594Y0067900D01*
X0083285Y0067200D01*
X0090315Y0067200D01*
X0092006Y0067900D01*
X0093300Y0069194D01*
X0094000Y0070885D01*
X0094000Y0072715D01*
X0093300Y0074406D01*
X0092006Y0075700D01*
X0090315Y0076400D01*
X0083285Y0076400D01*
X0081782Y0075778D01*
X0078386Y0079174D01*
X0077357Y0079600D01*
X0071810Y0079600D01*
X0071632Y0080029D01*
X0070029Y0081632D01*
X0067934Y0082500D01*
X0065666Y0082500D01*
X0063571Y0081632D01*
X0062066Y0080127D02*
X0054600Y0080127D01*
X0054600Y0078529D02*
X0061346Y0078529D01*
X0061100Y0076930D02*
X0054600Y0076930D01*
X0054600Y0075332D02*
X0061239Y0075332D01*
X0061901Y0073733D02*
X0054600Y0073733D01*
X0054600Y0072134D02*
X0063404Y0072134D01*
X0062758Y0070536D02*
X0054600Y0070536D01*
X0054600Y0068937D02*
X0061716Y0068937D01*
X0061317Y0067339D02*
X0054600Y0067339D01*
X0054600Y0065740D02*
X0061399Y0065740D01*
X0061982Y0064142D02*
X0054600Y0064142D01*
X0054600Y0062543D02*
X0063302Y0062543D01*
X0062884Y0060945D02*
X0054600Y0060945D01*
X0054600Y0059346D02*
X0061685Y0059346D01*
X0061100Y0057748D02*
X0054812Y0057748D01*
X0056410Y0056149D02*
X0061100Y0056149D01*
X0061562Y0054551D02*
X0058009Y0054551D01*
X0059607Y0052952D02*
X0062587Y0052952D01*
X0061206Y0051354D02*
X0065053Y0051354D01*
X0068547Y0051354D02*
X0079600Y0051354D01*
X0079698Y0052952D02*
X0071013Y0052952D01*
X0066800Y0056800D02*
X0076800Y0056800D01*
X0081800Y0061800D01*
X0086800Y0061800D01*
X0081962Y0057748D02*
X0081708Y0057748D01*
X0082680Y0056149D02*
X0080109Y0056149D01*
X0080445Y0054551D02*
X0078511Y0054551D01*
X0080068Y0049755D02*
X0062804Y0049755D01*
X0070716Y0060945D02*
X0076985Y0060945D01*
X0078584Y0062543D02*
X0070298Y0062543D01*
X0071618Y0064142D02*
X0080182Y0064142D01*
X0081693Y0065740D02*
X0072201Y0065740D01*
X0072283Y0067339D02*
X0082949Y0067339D01*
X0080557Y0068937D02*
X0071884Y0068937D01*
X0070842Y0070536D02*
X0079104Y0070536D01*
X0077506Y0072134D02*
X0070196Y0072134D01*
X0071699Y0073733D02*
X0075907Y0073733D01*
X0076800Y0076800D02*
X0081800Y0071800D01*
X0086800Y0071800D01*
X0090650Y0067339D02*
X0112949Y0067339D01*
X0113285Y0067200D02*
X0120315Y0067200D01*
X0122006Y0067900D01*
X0123105Y0069000D01*
X0128095Y0069000D01*
X0129895Y0067200D01*
X0133705Y0067200D01*
X0136400Y0069895D01*
X0136400Y0073705D01*
X0133705Y0076400D01*
X0129895Y0076400D01*
X0128095Y0074600D01*
X0123105Y0074600D01*
X0122006Y0075700D01*
X0120315Y0076400D01*
X0113285Y0076400D01*
X0111594Y0075700D01*
X0110300Y0074406D01*
X0109600Y0072715D01*
X0109600Y0070885D01*
X0110300Y0069194D01*
X0111594Y0067900D01*
X0113285Y0067200D01*
X0113170Y0066092D02*
X0112511Y0065878D01*
X0111894Y0065563D01*
X0111334Y0065156D01*
X0110844Y0064666D01*
X0110437Y0064106D01*
X0110122Y0063489D01*
X0109908Y0062830D01*
X0109800Y0062146D01*
X0109800Y0061800D01*
X0116800Y0061800D01*
X0116800Y0061800D01*
X0116800Y0066200D01*
X0119746Y0066200D01*
X0120430Y0066092D01*
X0121089Y0065878D01*
X0121706Y0065563D01*
X0122266Y0065156D01*
X0122756Y0064666D01*
X0123163Y0064106D01*
X0123478Y0063489D01*
X0123692Y0062830D01*
X0123800Y0062146D01*
X0123800Y0061800D01*
X0116800Y0061800D01*
X0116800Y0061800D01*
X0116800Y0057400D01*
X0119746Y0057400D01*
X0120430Y0057508D01*
X0121089Y0057722D01*
X0121706Y0058037D01*
X0122266Y0058444D01*
X0122756Y0058934D01*
X0123163Y0059494D01*
X0123478Y0060111D01*
X0123692Y0060770D01*
X0123800Y0061454D01*
X0123800Y0061800D01*
X0116800Y0061800D01*
X0116800Y0061800D01*
X0116800Y0061800D01*
X0116800Y0066200D01*
X0113854Y0066200D01*
X0113170Y0066092D01*
X0112242Y0065740D02*
X0091907Y0065740D01*
X0093409Y0064142D02*
X0110463Y0064142D01*
X0109863Y0062543D02*
X0094000Y0062543D01*
X0094000Y0060945D02*
X0109881Y0060945D01*
X0109908Y0060770D02*
X0110122Y0060111D01*
X0110437Y0059494D01*
X0110844Y0058934D01*
X0111334Y0058444D01*
X0111894Y0058037D01*
X0112511Y0057722D01*
X0113170Y0057508D01*
X0113854Y0057400D01*
X0116800Y0057400D01*
X0116800Y0061800D01*
X0109800Y0061800D01*
X0109800Y0061454D01*
X0109908Y0060770D01*
X0110544Y0059346D02*
X0093363Y0059346D01*
X0091638Y0057748D02*
X0112461Y0057748D01*
X0112680Y0056149D02*
X0090920Y0056149D01*
X0093154Y0054551D02*
X0110445Y0054551D01*
X0109698Y0052952D02*
X0093902Y0052952D01*
X0094000Y0051354D02*
X0109600Y0051354D01*
X0110068Y0049755D02*
X0093532Y0049755D01*
X0092262Y0048157D02*
X0111338Y0048157D01*
X0110854Y0044960D02*
X0092746Y0044960D01*
X0093732Y0043361D02*
X0109868Y0043361D01*
X0109600Y0041763D02*
X0094000Y0041763D01*
X0093701Y0040164D02*
X0109899Y0040164D01*
X0110929Y0038566D02*
X0092671Y0038566D01*
X0092006Y0035700D02*
X0090315Y0036400D01*
X0083285Y0036400D01*
X0081594Y0035700D01*
X0080300Y0034406D01*
X0079600Y0032715D01*
X0079600Y0030885D01*
X0080300Y0029194D01*
X0081594Y0027900D01*
X0083285Y0027200D01*
X0090315Y0027200D01*
X0092006Y0027900D01*
X0093300Y0029194D01*
X0094000Y0030885D01*
X0094000Y0032715D01*
X0093300Y0034406D01*
X0092006Y0035700D01*
X0092337Y0035369D02*
X0111263Y0035369D01*
X0110037Y0033770D02*
X0093563Y0033770D01*
X0094000Y0032172D02*
X0109600Y0032172D01*
X0109729Y0030573D02*
X0093871Y0030573D01*
X0093080Y0028975D02*
X0110520Y0028975D01*
X0112860Y0027376D02*
X0090740Y0027376D01*
X0091817Y0025778D02*
X0111783Y0025778D01*
X0110206Y0024179D02*
X0093394Y0024179D01*
X0094000Y0022581D02*
X0109600Y0022581D01*
X0109600Y0020982D02*
X0094000Y0020982D01*
X0093378Y0019384D02*
X0110222Y0019384D01*
X0111872Y0017785D02*
X0091728Y0017785D01*
X0086800Y0021800D02*
X0081800Y0021800D01*
X0076800Y0026800D01*
X0076800Y0036800D01*
X0079600Y0035369D02*
X0081263Y0035369D01*
X0080037Y0033770D02*
X0079600Y0033770D01*
X0079600Y0032172D02*
X0079600Y0032172D01*
X0079600Y0030573D02*
X0079729Y0030573D01*
X0079600Y0028975D02*
X0080520Y0028975D01*
X0080184Y0027376D02*
X0082860Y0027376D01*
X0077060Y0022581D02*
X0071200Y0022581D01*
X0071200Y0020982D02*
X0078658Y0020982D01*
X0080222Y0019384D02*
X0070606Y0019384D01*
X0069008Y0017785D02*
X0081872Y0017785D01*
X0075461Y0024179D02*
X0070643Y0024179D01*
X0063120Y0028975D02*
X0031599Y0028975D01*
X0031438Y0028975D02*
X0016299Y0028975D01*
X0014619Y0016187D02*
X0129681Y0016187D01*
X0133919Y0016187D02*
X0139681Y0016187D01*
X0138083Y0014588D02*
X0135517Y0014588D01*
X0136400Y0012990D02*
X0137200Y0012990D01*
X0137200Y0011391D02*
X0136400Y0011391D01*
X0136298Y0009793D02*
X0137302Y0009793D01*
X0138901Y0008194D02*
X0134699Y0008194D01*
X0131800Y0011800D02*
X0121800Y0011800D01*
X0116800Y0006800D01*
X0106537Y0009435D01*
X0101937Y0009793D02*
X0070937Y0009793D01*
X0070937Y0009435D02*
X0070937Y0011257D01*
X0068359Y0013834D01*
X0066537Y0013834D01*
X0066537Y0009435D01*
X0070937Y0009435D01*
X0070937Y0008194D02*
X0101937Y0008194D01*
X0101988Y0011391D02*
X0070802Y0011391D01*
X0069204Y0012990D02*
X0103586Y0012990D01*
X0109487Y0012990D02*
X0119030Y0012990D01*
X0117431Y0011391D02*
X0111085Y0011391D01*
X0121214Y0014588D02*
X0016052Y0014588D01*
X0016680Y0012990D02*
X0043850Y0012990D01*
X0042251Y0011391D02*
X0035407Y0011391D01*
X0036463Y0009793D02*
X0042200Y0009793D01*
X0042200Y0008194D02*
X0036463Y0008194D01*
X0032063Y0008513D02*
X0032063Y0008513D01*
X0032063Y0012912D01*
X0032063Y0008513D01*
X0032063Y0008512D02*
X0032063Y0008512D01*
X0027663Y0008512D01*
X0032063Y0008512D01*
X0032063Y0009793D02*
X0032063Y0009793D01*
X0032063Y0011391D02*
X0032063Y0011391D01*
X0028720Y0011391D02*
X0016800Y0011391D01*
X0016431Y0009793D02*
X0027663Y0009793D01*
X0027663Y0008194D02*
X0015472Y0008194D01*
X0049750Y0012990D02*
X0063869Y0012990D01*
X0064714Y0013834D02*
X0062137Y0011257D01*
X0062137Y0009435D01*
X0066536Y0009435D01*
X0066536Y0013834D01*
X0064714Y0013834D01*
X0066536Y0012990D02*
X0066537Y0012990D01*
X0066536Y0011391D02*
X0066537Y0011391D01*
X0066536Y0009793D02*
X0066537Y0009793D01*
X0062137Y0009793D02*
X0051400Y0009793D01*
X0051349Y0011391D02*
X0062271Y0011391D01*
X0062137Y0008194D02*
X0051400Y0008194D01*
X0007000Y0064142D02*
X0006600Y0064142D01*
X0006600Y0065740D02*
X0007000Y0065740D01*
X0044234Y0089718D02*
X0049000Y0089718D01*
X0049000Y0088120D02*
X0045349Y0088120D01*
X0045584Y0086521D02*
X0049000Y0086521D01*
X0049000Y0084923D02*
X0045118Y0084923D01*
X0054600Y0088120D02*
X0081375Y0088120D01*
X0080083Y0089718D02*
X0054600Y0089718D01*
X0054600Y0091317D02*
X0079600Y0091317D01*
X0079683Y0092915D02*
X0054600Y0092915D01*
X0054600Y0094514D02*
X0080408Y0094514D01*
X0082590Y0096112D02*
X0054600Y0096112D01*
X0054600Y0097711D02*
X0082052Y0097711D01*
X0080253Y0099309D02*
X0054600Y0099309D01*
X0054600Y0100908D02*
X0079600Y0100908D01*
X0079600Y0102506D02*
X0054600Y0102506D01*
X0054600Y0104105D02*
X0080176Y0104105D01*
X0078937Y0105703D02*
X0054600Y0105703D01*
X0054600Y0107302D02*
X0077338Y0107302D01*
X0075740Y0108900D02*
X0054600Y0108900D01*
X0054600Y0110499D02*
X0074141Y0110499D01*
X0072543Y0112097D02*
X0054600Y0112097D01*
X0054600Y0113696D02*
X0070944Y0113696D01*
X0069346Y0115294D02*
X0054600Y0115294D01*
X0054600Y0116893D02*
X0067747Y0116893D01*
X0066149Y0118491D02*
X0054600Y0118491D01*
X0054600Y0120090D02*
X0064550Y0120090D01*
X0062952Y0121688D02*
X0054600Y0121688D01*
X0054600Y0123287D02*
X0061353Y0123287D01*
X0059755Y0124885D02*
X0054600Y0124885D01*
X0054600Y0126484D02*
X0058156Y0126484D01*
X0056558Y0128082D02*
X0054300Y0128082D01*
X0054959Y0129681D02*
X0052879Y0129681D01*
X0054000Y0131279D02*
X0051280Y0131279D01*
X0049682Y0132878D02*
X0054000Y0132878D01*
X0054000Y0134476D02*
X0048083Y0134476D01*
X0046485Y0136075D02*
X0054000Y0136075D01*
X0054000Y0137673D02*
X0044886Y0137673D01*
X0043288Y0139272D02*
X0053976Y0139272D01*
X0053089Y0140870D02*
X0041689Y0140870D01*
X0040091Y0142469D02*
X0053016Y0142469D01*
X0053716Y0144068D02*
X0038492Y0144068D01*
X0036894Y0145666D02*
X0062096Y0145666D01*
X0059884Y0144068D02*
X0066080Y0144068D01*
X0060584Y0142469D02*
X0079600Y0142469D01*
X0079606Y0140870D02*
X0060511Y0140870D01*
X0059624Y0139272D02*
X0080268Y0139272D01*
X0082142Y0137673D02*
X0059600Y0137673D01*
X0059600Y0136075D02*
X0082500Y0136075D01*
X0083285Y0136400D02*
X0081594Y0135700D01*
X0080300Y0134406D01*
X0079600Y0132715D01*
X0079600Y0130885D01*
X0080300Y0129194D01*
X0081594Y0127900D01*
X0083285Y0127200D01*
X0090315Y0127200D01*
X0092006Y0127900D01*
X0093300Y0129194D01*
X0094000Y0130885D01*
X0094000Y0132715D01*
X0093300Y0134406D01*
X0092006Y0135700D01*
X0090315Y0136400D01*
X0083285Y0136400D01*
X0080371Y0134476D02*
X0059600Y0134476D01*
X0059682Y0132878D02*
X0079667Y0132878D01*
X0079600Y0131279D02*
X0061280Y0131279D01*
X0062879Y0129681D02*
X0080099Y0129681D01*
X0081412Y0128082D02*
X0064477Y0128082D01*
X0066076Y0126484D02*
X0104000Y0126484D01*
X0104000Y0128082D02*
X0092188Y0128082D01*
X0093501Y0129681D02*
X0104000Y0129681D01*
X0104000Y0131279D02*
X0094000Y0131279D01*
X0093933Y0132878D02*
X0104000Y0132878D01*
X0104000Y0134476D02*
X0093229Y0134476D01*
X0091100Y0136075D02*
X0103565Y0136075D01*
X0101967Y0137673D02*
X0091458Y0137673D01*
X0093332Y0139272D02*
X0100368Y0139272D01*
X0098770Y0140870D02*
X0093994Y0140870D01*
X0094000Y0142469D02*
X0097171Y0142469D01*
X0101894Y0145666D02*
X0112096Y0145666D01*
X0111894Y0145563D02*
X0111334Y0145156D01*
X0110844Y0144666D01*
X0110437Y0144106D01*
X0110122Y0143489D01*
X0109908Y0142830D01*
X0109800Y0142146D01*
X0109800Y0141800D01*
X0116800Y0141800D01*
X0116800Y0141800D01*
X0116800Y0146200D01*
X0119746Y0146200D01*
X0120430Y0146092D01*
X0121089Y0145878D01*
X0121706Y0145563D01*
X0122266Y0145156D01*
X0122756Y0144666D01*
X0123046Y0144268D01*
X0124977Y0146200D01*
X0126800Y0146200D01*
X0126800Y0141800D01*
X0126800Y0141800D01*
X0131200Y0141800D01*
X0131200Y0143623D01*
X0128623Y0146200D01*
X0126800Y0146200D01*
X0126800Y0141800D01*
X0126800Y0141800D01*
X0131200Y0141800D01*
X0131200Y0139977D01*
X0128623Y0137400D01*
X0126800Y0137400D01*
X0126800Y0141800D01*
X0126800Y0141800D01*
X0126800Y0141800D01*
X0123800Y0141800D01*
X0116800Y0141800D01*
X0116800Y0141800D01*
X0116800Y0146200D01*
X0113854Y0146200D01*
X0113170Y0146092D01*
X0112511Y0145878D01*
X0111894Y0145563D01*
X0110417Y0144068D02*
X0103492Y0144068D01*
X0105091Y0142469D02*
X0109851Y0142469D01*
X0109800Y0141800D02*
X0109800Y0141454D01*
X0109908Y0140770D01*
X0110122Y0140111D01*
X0110437Y0139494D01*
X0110844Y0138934D01*
X0111334Y0138444D01*
X0111894Y0138037D01*
X0112511Y0137722D01*
X0113170Y0137508D01*
X0113854Y0137400D01*
X0116800Y0137400D01*
X0119746Y0137400D01*
X0120430Y0137508D01*
X0121089Y0137722D01*
X0121706Y0138037D01*
X0122266Y0138444D01*
X0122756Y0138934D01*
X0123046Y0139332D01*
X0124977Y0137400D01*
X0126800Y0137400D01*
X0126800Y0141800D01*
X0116800Y0141800D01*
X0116800Y0137400D01*
X0116800Y0141800D01*
X0116800Y0141800D01*
X0116800Y0141800D01*
X0109800Y0141800D01*
X0109892Y0140870D02*
X0106689Y0140870D01*
X0108288Y0139272D02*
X0110598Y0139272D01*
X0109469Y0137673D02*
X0112661Y0137673D01*
X0113285Y0136400D02*
X0111594Y0135700D01*
X0110300Y0134406D01*
X0109600Y0132715D01*
X0109600Y0130885D01*
X0110300Y0129194D01*
X0111594Y0127900D01*
X0113285Y0127200D01*
X0120315Y0127200D01*
X0122006Y0127900D01*
X0123300Y0129194D01*
X0124000Y0130885D01*
X0124000Y0132715D01*
X0123300Y0134406D01*
X0122006Y0135700D01*
X0120315Y0136400D01*
X0113285Y0136400D01*
X0112500Y0136075D02*
X0109600Y0136075D01*
X0109600Y0134476D02*
X0110371Y0134476D01*
X0109667Y0132878D02*
X0109600Y0132878D01*
X0109600Y0131279D02*
X0109600Y0131279D01*
X0109600Y0129681D02*
X0110099Y0129681D01*
X0109600Y0128082D02*
X0111412Y0128082D01*
X0109600Y0126484D02*
X0134000Y0126484D01*
X0134000Y0128082D02*
X0122188Y0128082D01*
X0123501Y0129681D02*
X0134000Y0129681D01*
X0134000Y0131279D02*
X0124000Y0131279D01*
X0123933Y0132878D02*
X0134000Y0132878D01*
X0134000Y0134476D02*
X0123229Y0134476D01*
X0121100Y0136075D02*
X0134000Y0136075D01*
X0134000Y0137673D02*
X0128896Y0137673D01*
X0126800Y0137673D02*
X0126800Y0137673D01*
X0126800Y0139272D02*
X0126800Y0139272D01*
X0126800Y0140870D02*
X0126800Y0140870D01*
X0126800Y0142469D02*
X0126800Y0142469D01*
X0126800Y0144068D02*
X0126800Y0144068D01*
X0126800Y0145666D02*
X0126800Y0145666D01*
X0124444Y0145666D02*
X0121504Y0145666D01*
X0120471Y0147265D02*
X0124830Y0147265D01*
X0123232Y0148863D02*
X0122968Y0148863D01*
X0128770Y0147265D02*
X0134000Y0147265D01*
X0134000Y0148863D02*
X0130368Y0148863D01*
X0131400Y0150462D02*
X0134000Y0150462D01*
X0134000Y0152060D02*
X0131400Y0152060D01*
X0131400Y0153659D02*
X0134000Y0153659D01*
X0132785Y0156856D02*
X0049200Y0156856D01*
X0053196Y0155257D02*
X0081152Y0155257D01*
X0079991Y0153659D02*
X0057193Y0153659D01*
X0061189Y0152060D02*
X0079600Y0152060D01*
X0079775Y0150462D02*
X0065185Y0150462D01*
X0058099Y0147265D02*
X0035295Y0147265D01*
X0034600Y0148863D02*
X0054103Y0148863D01*
X0050107Y0150462D02*
X0034600Y0150462D01*
X0034600Y0152060D02*
X0046111Y0152060D01*
X0056800Y0141800D02*
X0056800Y0131800D01*
X0081800Y0106800D01*
X0096800Y0106800D01*
X0101800Y0101800D01*
X0101800Y0086800D01*
X0106800Y0081800D01*
X0116800Y0081800D01*
X0122634Y0078529D02*
X0159000Y0078529D01*
X0159000Y0080127D02*
X0123686Y0080127D01*
X0124000Y0081726D02*
X0159000Y0081726D01*
X0159000Y0083324D02*
X0123748Y0083324D01*
X0122374Y0075332D02*
X0128826Y0075332D01*
X0131800Y0071800D02*
X0116800Y0071800D01*
X0120650Y0067339D02*
X0129756Y0067339D01*
X0128157Y0068937D02*
X0123043Y0068937D01*
X0121358Y0065740D02*
X0159000Y0065740D01*
X0159000Y0064142D02*
X0123137Y0064142D01*
X0123737Y0062543D02*
X0159000Y0062543D01*
X0159123Y0060945D02*
X0123719Y0060945D01*
X0123056Y0059346D02*
X0160294Y0059346D01*
X0161892Y0057748D02*
X0121139Y0057748D01*
X0120920Y0056149D02*
X0163016Y0056149D01*
X0159000Y0067339D02*
X0133844Y0067339D01*
X0135443Y0068937D02*
X0138440Y0068937D01*
X0137400Y0069977D02*
X0137400Y0071800D01*
X0141800Y0071800D01*
X0146200Y0071800D01*
X0146200Y0073623D01*
X0143623Y0076200D01*
X0141800Y0076200D01*
X0141800Y0071800D01*
X0141800Y0071800D01*
X0141800Y0071800D01*
X0146200Y0071800D01*
X0146200Y0069977D01*
X0143623Y0067400D01*
X0141800Y0067400D01*
X0141800Y0071800D01*
X0141800Y0071800D01*
X0141800Y0071800D01*
X0141800Y0076200D01*
X0139977Y0076200D01*
X0137400Y0073623D01*
X0137400Y0071800D01*
X0141800Y0071800D01*
X0141800Y0067400D01*
X0139977Y0067400D01*
X0137400Y0069977D01*
X0137400Y0070536D02*
X0136400Y0070536D01*
X0136400Y0072134D02*
X0137400Y0072134D01*
X0137510Y0073733D02*
X0136372Y0073733D01*
X0134774Y0075332D02*
X0139109Y0075332D01*
X0141800Y0075332D02*
X0141800Y0075332D01*
X0141800Y0073733D02*
X0141800Y0073733D01*
X0141800Y0072134D02*
X0141800Y0072134D01*
X0141800Y0070536D02*
X0141800Y0070536D01*
X0141800Y0068937D02*
X0141800Y0068937D01*
X0145160Y0068937D02*
X0159000Y0068937D01*
X0159000Y0070536D02*
X0146200Y0070536D01*
X0146200Y0072134D02*
X0159000Y0072134D01*
X0159000Y0073733D02*
X0146090Y0073733D01*
X0144491Y0075332D02*
X0159000Y0075332D01*
X0159000Y0076930D02*
X0080630Y0076930D01*
X0081334Y0078444D02*
X0080844Y0078934D01*
X0080437Y0079494D01*
X0080122Y0080111D01*
X0079908Y0080770D01*
X0079800Y0081454D01*
X0079800Y0081800D01*
X0086800Y0081800D01*
X0086800Y0077400D01*
X0083854Y0077400D01*
X0083170Y0077508D01*
X0082511Y0077722D01*
X0081894Y0078037D01*
X0081334Y0078444D01*
X0081249Y0078529D02*
X0079031Y0078529D01*
X0080117Y0080127D02*
X0071534Y0080127D01*
X0069803Y0081726D02*
X0079800Y0081726D01*
X0076800Y0076800D02*
X0066800Y0076800D01*
X0086800Y0078529D02*
X0086800Y0078529D01*
X0086800Y0080127D02*
X0086800Y0080127D01*
X0086800Y0081726D02*
X0086800Y0081726D01*
X0086800Y0083324D02*
X0086800Y0083324D01*
X0086800Y0084923D02*
X0086800Y0084923D01*
X0093483Y0080127D02*
X0104513Y0080127D01*
X0102915Y0081726D02*
X0093800Y0081726D01*
X0093531Y0083324D02*
X0101316Y0083324D01*
X0107637Y0084923D02*
X0110817Y0084923D01*
X0110966Y0078529D02*
X0092351Y0078529D01*
X0092374Y0075332D02*
X0111226Y0075332D01*
X0110022Y0073733D02*
X0093578Y0073733D01*
X0094000Y0072134D02*
X0109600Y0072134D01*
X0109745Y0070536D02*
X0093855Y0070536D01*
X0093043Y0068937D02*
X0110557Y0068937D01*
X0116800Y0065740D02*
X0116800Y0065740D01*
X0116800Y0064142D02*
X0116800Y0064142D01*
X0116800Y0062543D02*
X0116800Y0062543D01*
X0116800Y0060945D02*
X0116800Y0060945D01*
X0116800Y0059346D02*
X0116800Y0059346D01*
X0116800Y0057748D02*
X0116800Y0057748D01*
X0099000Y0096112D02*
X0091010Y0096112D01*
X0091548Y0097711D02*
X0099000Y0097711D01*
X0099000Y0099309D02*
X0093347Y0099309D01*
X0094000Y0100908D02*
X0098732Y0100908D01*
X0097134Y0102506D02*
X0094000Y0102506D01*
X0100258Y0107302D02*
X0104000Y0107302D01*
X0104000Y0108900D02*
X0098660Y0108900D01*
X0101857Y0105703D02*
X0104000Y0105703D01*
X0104000Y0104105D02*
X0103455Y0104105D01*
X0104000Y0110499D02*
X0093840Y0110499D01*
X0094000Y0112097D02*
X0104000Y0112097D01*
X0104000Y0113696D02*
X0093594Y0113696D01*
X0092411Y0115294D02*
X0104000Y0115294D01*
X0104000Y0116893D02*
X0075667Y0116893D01*
X0074068Y0118491D02*
X0081003Y0118491D01*
X0081594Y0117900D02*
X0080300Y0119194D01*
X0079600Y0120885D01*
X0079600Y0122715D01*
X0080300Y0124406D01*
X0081594Y0125700D01*
X0083285Y0126400D01*
X0090315Y0126400D01*
X0092006Y0125700D01*
X0093300Y0124406D01*
X0094000Y0122715D01*
X0094000Y0120885D01*
X0093300Y0119194D01*
X0092006Y0117900D01*
X0090315Y0117200D01*
X0083285Y0117200D01*
X0081594Y0117900D01*
X0081189Y0115294D02*
X0077265Y0115294D01*
X0078864Y0113696D02*
X0080006Y0113696D01*
X0079929Y0120090D02*
X0072470Y0120090D01*
X0070871Y0121688D02*
X0079600Y0121688D01*
X0079837Y0123287D02*
X0069273Y0123287D01*
X0067674Y0124885D02*
X0080780Y0124885D01*
X0092820Y0124885D02*
X0104000Y0124885D01*
X0104000Y0123287D02*
X0093763Y0123287D01*
X0094000Y0121688D02*
X0104000Y0121688D01*
X0104000Y0120090D02*
X0093671Y0120090D01*
X0092597Y0118491D02*
X0104000Y0118491D01*
X0109600Y0118491D02*
X0111003Y0118491D01*
X0109929Y0120090D02*
X0109600Y0120090D01*
X0109600Y0121688D02*
X0109600Y0121688D01*
X0109600Y0123287D02*
X0109837Y0123287D01*
X0109600Y0124885D02*
X0110780Y0124885D01*
X0122820Y0124885D02*
X0134000Y0124885D01*
X0134000Y0123287D02*
X0123763Y0123287D01*
X0124000Y0121688D02*
X0134000Y0121688D01*
X0134000Y0120090D02*
X0123671Y0120090D01*
X0139600Y0118491D02*
X0149899Y0118491D01*
X0134000Y0139272D02*
X0130495Y0139272D01*
X0131200Y0140870D02*
X0134000Y0140870D01*
X0134000Y0142469D02*
X0131200Y0142469D01*
X0130755Y0144068D02*
X0134000Y0144068D01*
X0134000Y0145666D02*
X0129156Y0145666D01*
X0123105Y0139272D02*
X0123002Y0139272D01*
X0124704Y0137673D02*
X0120939Y0137673D01*
X0116800Y0137673D02*
X0116800Y0137673D01*
X0116800Y0139272D02*
X0116800Y0139272D01*
X0116800Y0140870D02*
X0116800Y0140870D01*
X0116800Y0142469D02*
X0116800Y0142469D01*
X0116800Y0144068D02*
X0116800Y0144068D01*
X0116800Y0145666D02*
X0116800Y0145666D01*
X0113129Y0147265D02*
X0100295Y0147265D01*
X0098697Y0148863D02*
X0110632Y0148863D01*
X0109775Y0150462D02*
X0093825Y0150462D01*
X0094000Y0152060D02*
X0109600Y0152060D01*
X0109991Y0153659D02*
X0093609Y0153659D01*
X0092448Y0155257D02*
X0111152Y0155257D01*
X0113304Y0163250D02*
X0074472Y0163250D01*
X0073623Y0162400D02*
X0076200Y0164977D01*
X0076200Y0166800D01*
X0076200Y0168623D01*
X0073623Y0171200D01*
X0071800Y0171200D01*
X0071800Y0166800D01*
X0071800Y0166800D01*
X0076200Y0166800D01*
X0071800Y0166800D01*
X0071800Y0166800D01*
X0071800Y0166800D01*
X0067400Y0166800D01*
X0067400Y0168623D01*
X0069977Y0171200D01*
X0071800Y0171200D01*
X0071800Y0166800D01*
X0071800Y0162400D01*
X0073623Y0162400D01*
X0071800Y0162400D02*
X0071800Y0166800D01*
X0071800Y0166800D01*
X0067400Y0166800D01*
X0067400Y0164977D01*
X0069977Y0162400D01*
X0071800Y0162400D01*
X0071800Y0163250D02*
X0071800Y0163250D01*
X0071800Y0164848D02*
X0071800Y0164848D01*
X0071800Y0166447D02*
X0071800Y0166447D01*
X0071800Y0168045D02*
X0071800Y0168045D01*
X0071800Y0169644D02*
X0071800Y0169644D01*
X0075179Y0169644D02*
X0099997Y0169644D01*
X0098398Y0171242D02*
X0041414Y0171242D01*
X0041519Y0170235D02*
X0037145Y0170235D01*
X0037145Y0170234D02*
X0037145Y0165860D01*
X0037489Y0165860D01*
X0038169Y0165968D01*
X0038824Y0166180D01*
X0039437Y0166493D01*
X0039995Y0166898D01*
X0040481Y0167385D01*
X0040886Y0167942D01*
X0041199Y0168555D01*
X0041412Y0169210D01*
X0041519Y0169890D01*
X0041519Y0170235D01*
X0041480Y0169644D02*
X0068421Y0169644D01*
X0067400Y0168045D02*
X0040939Y0168045D01*
X0039347Y0166447D02*
X0067400Y0166447D01*
X0067529Y0164848D02*
X0034600Y0164848D01*
X0034600Y0163250D02*
X0069128Y0163250D01*
X0076071Y0164848D02*
X0114496Y0164848D01*
X0109174Y0170214D02*
X0109174Y0170214D01*
X0108603Y0169644D02*
X0133138Y0169644D01*
X0132200Y0168045D02*
X0076200Y0168045D01*
X0076200Y0166447D02*
X0132200Y0166447D01*
X0134737Y0171242D02*
X0110202Y0171242D01*
X0111800Y0172841D02*
X0124537Y0172841D01*
X0124977Y0172400D02*
X0122400Y0174977D01*
X0122400Y0176800D01*
X0126800Y0176800D01*
X0126800Y0176800D01*
X0126800Y0181200D01*
X0128623Y0181200D01*
X0131200Y0178623D01*
X0131200Y0176800D01*
X0126800Y0176800D01*
X0126800Y0176800D01*
X0126800Y0176800D01*
X0126800Y0181200D01*
X0124977Y0181200D01*
X0122400Y0178623D01*
X0122400Y0176800D01*
X0126800Y0176800D01*
X0131200Y0176800D01*
X0131200Y0174977D01*
X0128623Y0172400D01*
X0126800Y0172400D01*
X0126800Y0176800D01*
X0126800Y0176800D01*
X0126800Y0172400D01*
X0124977Y0172400D01*
X0126800Y0172841D02*
X0126800Y0172841D01*
X0126800Y0174439D02*
X0126800Y0174439D01*
X0126800Y0176038D02*
X0126800Y0176038D01*
X0126800Y0177636D02*
X0126800Y0177636D01*
X0126800Y0179235D02*
X0126800Y0179235D01*
X0126800Y0180833D02*
X0126800Y0180833D01*
X0128989Y0180833D02*
X0139611Y0180833D01*
X0139977Y0181200D02*
X0137400Y0178623D01*
X0137400Y0176800D01*
X0141800Y0176800D01*
X0141800Y0176800D01*
X0141800Y0181200D01*
X0143623Y0181200D01*
X0146200Y0178623D01*
X0146200Y0176800D01*
X0141800Y0176800D01*
X0141800Y0176800D01*
X0141800Y0176800D01*
X0141800Y0181200D01*
X0139977Y0181200D01*
X0139663Y0182432D02*
X0128937Y0182432D01*
X0130588Y0179235D02*
X0138012Y0179235D01*
X0137400Y0177636D02*
X0131200Y0177636D01*
X0131200Y0176038D02*
X0137400Y0176038D01*
X0137400Y0176800D02*
X0137400Y0174977D01*
X0139977Y0172400D01*
X0141800Y0172400D01*
X0143623Y0172400D01*
X0146200Y0174977D01*
X0146200Y0176800D01*
X0141800Y0176800D01*
X0141800Y0172400D01*
X0141800Y0176800D01*
X0141800Y0176800D01*
X0137400Y0176800D01*
X0137938Y0174439D02*
X0130662Y0174439D01*
X0129063Y0172841D02*
X0139537Y0172841D01*
X0138863Y0171242D02*
X0172502Y0171242D01*
X0172502Y0169644D02*
X0140462Y0169644D01*
X0141400Y0168045D02*
X0172200Y0168045D01*
X0172502Y0172841D02*
X0144063Y0172841D01*
X0145662Y0174439D02*
X0172502Y0174439D01*
X0172502Y0176038D02*
X0146200Y0176038D01*
X0146200Y0177636D02*
X0172502Y0177636D01*
X0172502Y0179235D02*
X0145588Y0179235D01*
X0143989Y0180833D02*
X0162882Y0180833D01*
X0160810Y0182432D02*
X0158371Y0182432D01*
X0159943Y0184030D02*
X0159949Y0184030D01*
X0155502Y0184030D02*
X0155102Y0184030D01*
X0155102Y0182432D02*
X0155502Y0182432D01*
X0155102Y0181500D02*
X0155102Y0186800D01*
X0149802Y0186800D01*
X0149802Y0186568D01*
X0149938Y0185713D01*
X0150205Y0184889D01*
X0150598Y0184118D01*
X0151107Y0183417D01*
X0151719Y0182805D01*
X0152420Y0182296D01*
X0153191Y0181903D01*
X0154015Y0181636D01*
X0154870Y0181500D01*
X0155102Y0181500D01*
X0152234Y0182432D02*
X0143937Y0182432D01*
X0145536Y0184030D02*
X0150662Y0184030D01*
X0149965Y0185629D02*
X0146400Y0185629D01*
X0146400Y0187227D02*
X0149802Y0187227D01*
X0150113Y0188826D02*
X0146280Y0188826D01*
X0144681Y0190424D02*
X0150992Y0190424D01*
X0153045Y0192023D02*
X0105583Y0192023D01*
X0106400Y0190424D02*
X0123919Y0190424D01*
X0121800Y0186800D02*
X0126800Y0186800D01*
X0141800Y0186800D01*
X0138919Y0190424D02*
X0129681Y0190424D01*
X0121800Y0186800D02*
X0106800Y0171800D01*
X0101800Y0171800D01*
X0096800Y0176800D01*
X0096800Y0181800D01*
X0101400Y0182432D02*
X0102400Y0182432D01*
X0102400Y0181800D02*
X0102400Y0179977D01*
X0104977Y0177400D01*
X0106800Y0177400D01*
X0106800Y0181800D01*
X0102400Y0181800D01*
X0102400Y0180833D02*
X0101400Y0180833D01*
X0100740Y0179235D02*
X0103143Y0179235D01*
X0104741Y0177636D02*
X0099924Y0177636D01*
X0101522Y0176038D02*
X0107078Y0176038D01*
X0106800Y0177636D02*
X0106800Y0177636D01*
X0106800Y0179235D02*
X0106800Y0179235D01*
X0106800Y0180833D02*
X0106800Y0180833D01*
X0106800Y0182432D02*
X0106800Y0182432D01*
X0106800Y0184030D02*
X0106800Y0184030D01*
X0106800Y0185629D02*
X0106800Y0185629D01*
X0106233Y0187227D02*
X0118268Y0187227D01*
X0119426Y0188386D02*
X0119426Y0188386D01*
X0119866Y0188826D02*
X0106400Y0188826D01*
X0109194Y0185629D02*
X0116669Y0185629D01*
X0115071Y0184030D02*
X0110792Y0184030D01*
X0111200Y0182432D02*
X0113472Y0182432D01*
X0111873Y0180833D02*
X0111200Y0180833D01*
X0114998Y0176038D02*
X0122400Y0176038D01*
X0122400Y0177636D02*
X0116596Y0177636D01*
X0118195Y0179235D02*
X0123012Y0179235D01*
X0124611Y0180833D02*
X0119793Y0180833D01*
X0121392Y0182432D02*
X0124663Y0182432D01*
X0122938Y0174439D02*
X0113399Y0174439D01*
X0102808Y0184030D02*
X0101075Y0184030D01*
X0097367Y0187227D02*
X0084858Y0187227D01*
X0084858Y0188826D02*
X0097200Y0188826D01*
X0094123Y0185629D02*
X0084347Y0185629D01*
X0092525Y0184030D02*
X0041600Y0184030D01*
X0041719Y0182432D02*
X0092200Y0182432D01*
X0092200Y0180833D02*
X0074272Y0180833D01*
X0073705Y0181400D02*
X0069895Y0181400D01*
X0067200Y0178705D01*
X0067200Y0174895D01*
X0069895Y0172200D01*
X0073705Y0172200D01*
X0076400Y0174895D01*
X0076400Y0178705D01*
X0073705Y0181400D01*
X0075871Y0179235D02*
X0092860Y0179235D01*
X0094000Y0177636D02*
X0076400Y0177636D01*
X0076400Y0176038D02*
X0094085Y0176038D01*
X0095201Y0174439D02*
X0075945Y0174439D01*
X0074346Y0172841D02*
X0096799Y0172841D01*
X0075432Y0185629D02*
X0073570Y0185629D01*
X0070462Y0185629D02*
X0065696Y0185629D01*
X0067902Y0187227D02*
X0068256Y0187227D01*
X0062588Y0185629D02*
X0057822Y0185629D01*
X0060028Y0187227D02*
X0060382Y0187227D01*
X0054714Y0185629D02*
X0050977Y0185629D01*
X0045811Y0185629D02*
X0040819Y0185629D01*
X0038490Y0187227D02*
X0044138Y0187227D01*
X0043476Y0188826D02*
X0024442Y0188826D01*
X0024676Y0190424D02*
X0043425Y0190424D01*
X0043880Y0192023D02*
X0024676Y0192023D01*
X0024177Y0193621D02*
X0045052Y0193621D01*
X0035799Y0187227D02*
X0023780Y0187227D01*
X0022553Y0185629D02*
X0033471Y0185629D01*
X0030960Y0184030D02*
X0020358Y0184030D01*
X0027945Y0180833D02*
X0006600Y0180833D01*
X0006600Y0179235D02*
X0027845Y0179235D01*
X0028316Y0177636D02*
X0006600Y0177636D01*
X0006600Y0176038D02*
X0028604Y0176038D01*
X0027905Y0174439D02*
X0006600Y0174439D01*
X0006600Y0172841D02*
X0027845Y0172841D01*
X0034600Y0166447D02*
X0034942Y0166447D01*
X0037144Y0166447D02*
X0037145Y0166447D01*
X0037144Y0168045D02*
X0037145Y0168045D01*
X0037144Y0169644D02*
X0037145Y0169644D01*
X0040659Y0172841D02*
X0069254Y0172841D01*
X0067655Y0174439D02*
X0041229Y0174439D01*
X0041719Y0176038D02*
X0067200Y0176038D01*
X0067200Y0177636D02*
X0041640Y0177636D01*
X0040913Y0179235D02*
X0067729Y0179235D01*
X0069328Y0180833D02*
X0041268Y0180833D01*
X0028699Y0182432D02*
X0006600Y0182432D01*
X0006600Y0184030D02*
X0013774Y0184030D01*
X0011578Y0185629D02*
X0006600Y0185629D01*
X0006600Y0187227D02*
X0010351Y0187227D01*
X0009689Y0188826D02*
X0006600Y0188826D01*
X0006600Y0190424D02*
X0009456Y0190424D01*
X0009456Y0192023D02*
X0006600Y0192023D01*
X0006600Y0193621D02*
X0009954Y0193621D01*
X0012185Y0168045D02*
X0006600Y0168045D01*
X0006600Y0166447D02*
X0010603Y0166447D01*
X0009940Y0164848D02*
X0006600Y0164848D01*
X0006600Y0163250D02*
X0009456Y0163250D01*
X0009456Y0161651D02*
X0006600Y0161651D01*
X0006600Y0160053D02*
X0009703Y0160053D01*
X0010365Y0158454D02*
X0006600Y0158454D01*
X0006600Y0156856D02*
X0011611Y0156856D01*
X0122448Y0155257D02*
X0123752Y0155257D01*
X0141800Y0172841D02*
X0141800Y0172841D01*
X0141800Y0174439D02*
X0141800Y0174439D01*
X0141800Y0176038D02*
X0141800Y0176038D01*
X0141800Y0177636D02*
X0141800Y0177636D01*
X0141800Y0179235D02*
X0141800Y0179235D01*
X0141800Y0180833D02*
X0141800Y0180833D01*
X0155102Y0185629D02*
X0155502Y0185629D01*
X0155502Y0187227D02*
X0155102Y0187227D01*
X0155102Y0188826D02*
X0155502Y0188826D01*
X0155502Y0190424D02*
X0155102Y0190424D01*
X0155102Y0192023D02*
X0155502Y0192023D01*
X0157560Y0192023D02*
X0172533Y0192023D01*
X0170665Y0190424D02*
X0168940Y0190424D01*
X0161665Y0190424D02*
X0159613Y0190424D01*
X0167723Y0180833D02*
X0172502Y0180833D01*
X0171810Y0182432D02*
X0169795Y0182432D01*
X0178102Y0180833D02*
X0190253Y0180833D01*
X0190666Y0182432D02*
X0178795Y0182432D01*
X0180242Y0184030D02*
X0189314Y0184030D01*
X0189142Y0179235D02*
X0178102Y0179235D01*
X0178102Y0177636D02*
X0188620Y0177636D01*
X0188620Y0176038D02*
X0178102Y0176038D01*
X0178102Y0174439D02*
X0189144Y0174439D01*
X0190257Y0172841D02*
X0178102Y0172841D01*
X0178863Y0171242D02*
X0191023Y0171242D01*
X0189576Y0169644D02*
X0180462Y0169644D01*
X0181400Y0168045D02*
X0188942Y0168045D01*
X0188820Y0166447D02*
X0181400Y0166447D01*
X0181354Y0164848D02*
X0189184Y0164848D01*
X0190131Y0163250D02*
X0179755Y0163250D01*
X0128901Y0008194D02*
X0122154Y0008194D01*
D19*
X0166800Y0056800D03*
X0151800Y0121800D03*
X0151800Y0131800D03*
X0116800Y0161800D03*
X0056800Y0141800D03*
X0041800Y0156800D03*
X0041800Y0086800D03*
M02*
